<?xml version="1.0" encoding="UTF-8" standalone="no"?>
<!-- Created with Inkscape (http://www.inkscape.org/) -->

<svg
   xmlns:dc="http://purl.org/dc/elements/1.1/"
   xmlns:cc="http://creativecommons.org/ns#"
   xmlns:rdf="http://www.w3.org/1999/02/22-rdf-syntax-ns#"
   xmlns:svg="http://www.w3.org/2000/svg"
   xmlns="http://www.w3.org/2000/svg"
   xmlns:sodipodi="http://sodipodi.sourceforge.net/DTD/sodipodi-0.dtd"
   xmlns:inkscape="http://www.inkscape.org/namespaces/inkscape"
   width="252"
   height="104"
   viewBox="0 0 252.00001 104.00001"
   id="svg4135"
   version="1.1"
   inkscape:version="0.91 r13725"
   sodipodi:docname="helpmenu-en.svg"
   inkscape:export-filename="/home/sebastien/Sources/grub-themes/Sunshine-LinuxMint/helpmenu-en.png"
   inkscape:export-xdpi="90"
   inkscape:export-ydpi="90">
  <defs
     id="defs4137" />
  <sodipodi:namedview
     id="base"
     pagecolor="#c1deff"
     bordercolor="#666666"
     borderopacity="1.0"
     inkscape:pageopacity="0"
     inkscape:pageshadow="2"
     inkscape:zoom="2"
     inkscape:cx="127.5375"
     inkscape:cy="36.172119"
     inkscape:document-units="px"
     inkscape:current-layer="layer1"
     showgrid="false"
     units="px"
     inkscape:window-width="1024"
     inkscape:window-height="550"
     inkscape:window-x="0"
     inkscape:window-y="0"
     inkscape:window-maximized="1"
     fit-margin-top="12"
     fit-margin-left="12"
     fit-margin-right="12"
     fit-margin-bottom="12" />
  <metadata
     id="metadata4140">
    <rdf:RDF>
      <cc:Work
         rdf:about="">
        <dc:format>image/svg+xml</dc:format>
        <dc:type
           rdf:resource="http://purl.org/dc/dcmitype/StillImage" />
        <dc:title></dc:title>
      </cc:Work>
    </rdf:RDF>
  </metadata>
  <g
     inkscape:label="Calque 1"
     inkscape:groupmode="layer"
     id="layer1"
     transform="translate(-19.999999,-928.36221)">
    <g
       id="g3373">
      <path
         inkscape:connector-curvature="0"
         d="m 218.86314,992.95049 22.27372,0 c 2.17275,0 3.92192,1.56455 3.92192,3.50788 l 0,17.45473 c 0,1.9434 -1.74917,3.5079 -3.92192,3.5079 l -22.27372,0 c -2.17275,0 -3.92192,-1.5645 -3.92192,-3.5079 l 0,-17.45473 c 0,-1.94333 1.74917,-3.50788 3.92192,-3.50788 z"
         id="path12"
         style="fill:#2f2930;stroke:#ffffff;stroke-width:1.88244307;stroke-linecap:round;stroke-linejoin:round;stroke-miterlimit:13.65400028" />
      <path
         id="path14"
         d="m 218.40102,996.37826 5.71823,0 0,1.02978 -4.49457,0 0,2.67736 4.30682,0 0,1.0297 -4.30682,0 0,3.2772 4.60364,0 0,1.0296 -5.8272,0 0,-9.04364 z m 12.12695,2.45937 0,1.05399 c -0.31499,-0.1616 -0.6421,-0.2827 -0.9813,-0.3634 -0.33923,-0.081 -0.69054,-0.1213 -1.05399,-0.1213 -0.55324,0 -0.96817,0.085 -1.2448,0.2544 -0.27663,0.1696 -0.41493,0.42408 -0.41493,0.76318 0,0.2585 0.099,0.4615 0.29681,0.6088 0.19789,0.1475 0.59565,0.2878 1.1933,0.4211 l 0.38167,0.085 c 0.7915,0.1696 1.35386,0.4089 1.687,0.7178 0.33314,0.309 0.49969,0.74 0.49969,1.2933 0,0.63 -0.24934,1.1288 -0.74809,1.4962 -0.4987,0.3674 -1.18417,0.5512 -2.05645,0.5512 -0.36345,0 -0.74202,-0.035 -1.13575,-0.1061 -0.39375,-0.071 -0.80866,-0.1766 -1.24481,-0.3179 l 0,-1.151 c 0.41193,0.2139 0.81776,0.3746 1.21752,0.4815 0.39981,0.1076 0.79553,0.1605 1.18726,0.1605 0.52495,0 0.92877,-0.09 1.21146,-0.2694 0.28266,-0.1798 0.42402,-0.4332 0.42402,-0.7604 0,-0.3027 -0.10191,-0.535 -0.30591,-0.6965 -0.20393,-0.1616 -0.65118,-0.3169 -1.34176,-0.4664 l -0.38772,-0.091 c -0.69052,-0.1458 -1.18931,-0.3685 -1.49616,-0.6693 -0.30693,-0.3009 -0.46034,-0.7139 -0.46034,-1.2388 0,-0.63808 0.22613,-1.13068 0.67844,-1.47799 0.45228,-0.3473 1.09429,-0.52096 1.92625,-0.52096 0.41188,0 0.79955,0.0303 1.16304,0.0909 0.36345,0.0607 0.69863,0.15147 1.00555,0.27262 z m 7.02655,0.0605 0,1.04189 c -0.31498,-0.1737 -0.63098,-0.3039 -0.94797,-0.3907 -0.31701,-0.087 -0.63704,-0.1302 -0.96009,-0.1302 -0.72286,0 -1.2842,0.2292 -1.68403,0.68748 -0.39978,0.4584 -0.59967,1.1015 -0.59967,1.9293 0,0.828 0.19989,1.4711 0.59967,1.9293 0.39981,0.4584 0.96113,0.6876 1.68403,0.6876 0.32305,0 0.64308,-0.043 0.96009,-0.1296 0.31699,-0.087 0.63299,-0.217 0.94797,-0.3908 l 0,1.0298 c -0.31096,0.1458 -0.63298,0.2544 -0.96615,0.3271 -0.33315,0.072 -0.68752,0.1089 -1.06312,0.1089 -1.02168,0 -1.8334,-0.321 -2.43503,-0.9632 -0.6017,-0.6421 -0.90257,-1.5083 -0.90257,-2.5984 0,-1.1066 0.3039,-1.9768 0.91167,-2.61078 0.60774,-0.63403 1.44067,-0.95105 2.49865,-0.95105 0.34325,0 0.6784,0.0353 1.00555,0.10603 0.32706,0.0707 0.64408,0.17666 0.951,0.31799 z"
         inkscape:connector-curvature="0"
         style="fill:#ffffff" />
    </g>
    <g
       id="g3917"
       transform="matrix(0.65798,0,0,0.65798,-142.77697,770.75212)"
       inkscape:export-filename="/home/sebastien/src/grub-themes/linuxmint-02/keyboard-e.png"
       inkscape:export-xdpi="90"
       inkscape:export-ydpi="90">
      <path
         inkscape:connector-curvature="0"
         d="m 257.40894,329.03533 34.673,0 c 3.1187,0 5.6294,2.2456 5.6294,5.0351 l 0,35.862 c 0,2.7894 -2.5107,5.0351 -5.6294,5.0351 l -34.673,0 c -3.1187,0 -5.6294,-2.2456 -5.6294,-5.0351 l 0,-35.862 c 0,-2.7895 2.5107,-5.0351 5.6294,-5.0351 z"
         id="path178"
         style="fill:#2f2930;stroke:#ffffff;stroke-width:2.7019999;stroke-linecap:round;stroke-linejoin:round;stroke-miterlimit:13.65400028" />
      <path
         inkscape:connector-curvature="0"
         d="m 260.08894,337.72533 8.8603,0 0,1.5956 -6.9644,0 0,4.1486 6.6734,0 0,1.5956 -6.6734,0 0,5.0778 7.1333,0 0,1.5956 -9.0293,0 0,-14.013 z"
         id="path202"
         style="fill:#ffffff" />
    </g>
    <g
       id="g3351"
       transform="translate(2,48.000012)">
      <g
         inkscape:export-ydpi="90"
         inkscape:export-xdpi="90"
         inkscape:export-filename="/home/sebastien/src/grub-themes/linuxmint-02/keyboard-up.png"
         transform="matrix(0.65798,0,0,0.65798,-414.19398,752.04235)"
         id="g3881">
        <path
           style="fill:#2f2930;stroke:#ffffff;stroke-width:2.7019999;stroke-linecap:round;stroke-linejoin:round;stroke-miterlimit:13.65400028"
           id="path354"
           d="m 715.5034,199.411 34.673,0 c 3.1186,0 5.6294,2.2456 5.6294,5.0351 l 0,35.862 c 0,2.7894 -2.5107,5.0351 -5.6294,5.0351 l -34.673,0 c -3.1186,0 -5.6294,-2.2457 -5.6294,-5.0351 l 0,-35.862 c 0,-2.7895 2.5107,-5.0351 5.6294,-5.0351 z"
           inkscape:connector-curvature="0" />
        <path
           style="fill:#ffffff;fill-rule:evenodd;stroke-width:0.727"
           inkscape:connector-curvature="0"
           d="m 731.4934,213.731 -3.9684,6.8391 2.9552,0 0,9.9631 1.9419,0 0,-9.9631 2.9552,0 -3.8839,-6.8391 z"
           id="path368" />
      </g>
      <g
         inkscape:export-ydpi="90"
         inkscape:export-xdpi="90"
         inkscape:export-filename="/home/sebastien/src/grub-themes/linuxmint-02/keyboard-down.png"
         transform="matrix(0.65798,0,0,0.65798,-446.45059,717.68928)"
         id="g3885">
        <path
           style="fill:#2f2930;stroke:#ffffff;stroke-width:2.7019999;stroke-linecap:round;stroke-linejoin:round;stroke-miterlimit:13.65400028"
           id="path356"
           d="m 715.8934,251.621 34.673,0 c 3.1186,0 5.6294,2.2457 5.6294,5.0351 l 0,35.862 c 0,2.7894 -2.5107,5.035 -5.6294,5.035 l -34.673,0 c -3.1188,0 -5.6294,-2.2456 -5.6294,-5.035 l 0,-35.862 c 0,-2.7894 2.5106,-5.0351 5.6294,-5.0351 z"
           inkscape:connector-curvature="0" />
        <path
           style="fill:#ffffff;fill-rule:evenodd;stroke-width:0.727"
           inkscape:connector-curvature="0"
           d="m 730.9034,266.411 0,10.048 -2.9552,0 3.9684,6.7546 3.8839,-6.7546 -2.9551,0 0,-10.048 -1.942,0 z"
           id="path370" />
      </g>
    </g>
    <g
       style="display:inline"
       id="g3836"
       transform="matrix(0.65798,0,0,0.65798,-54.276731,856.04234)"
       inkscape:export-filename="/home/sebastien/src/grub-themes/linuxmint-02/keyboard-c.png"
       inkscape:export-xdpi="90"
       inkscape:export-ydpi="90">
      <path
         inkscape:connector-curvature="0"
         d="m 220.1734,199.411 34.673,0 c 3.1187,0 5.6294,2.2456 5.6294,5.0351 l 0,35.862 c 0,2.7894 -2.5107,5.0351 -5.6294,5.0351 l -34.673,0 c -3.1187,0 -5.6294,-2.2457 -5.6294,-5.0351 l 0,-35.862 c 0,-2.7895 2.5107,-5.0351 5.6294,-5.0351 z"
         id="path282"
         style="fill:#2f2930;stroke:#ffffff;stroke-width:2.7019999;stroke-linecap:round;stroke-linejoin:round;stroke-miterlimit:13.65400028" />
      <path
         inkscape:connector-curvature="0"
         d="m 232.7334,210.261 0,1.9992 c -0.63828,-0.59442 -1.3188,-1.0387 -2.0414,-1.3328 -0.72272,-0.29404 -1.4908,-0.44113 -2.3042,-0.44113 -1.6019,0 -2.8283,0.48966 -3.6793,1.4689 -0.85098,0.97928 -1.2765,2.395 -1.2765,4.2472 0,1.8459 0.42551,3.2584 1.2765,4.2377 0.85101,0.97928 2.0774,1.4689 3.6793,1.4689 0.81342,0 1.5815,-0.14706 2.3042,-0.44116 0.72269,-0.2941 1.4032,-0.73834 2.0414,-1.3328 l 0,1.9804 c -0.6633,0.45056 -1.3656,0.78845 -2.1072,1.0137 -0.74152,0.22525 -1.5252,0.33789 -2.3512,0.33789 -2.1212,0 -3.7919,-0.6492 -5.0121,-1.9476 -1.2202,-1.2984 -1.8303,-3.0708 -1.8303,-5.3171 0,-2.2526 0.61009,-4.0281 1.8303,-5.3265 1.22021,-1.2984 2.8909,-1.9476 5.0121,-1.9476 0.8385,0 1.6285,0.11108 2.37,0.33319 0.74149,0.22217 1.4376,0.55536 2.0884,0.9996 z"
         id="path302"
         style="fill:#ffffff" />
    </g>
    <g
       style="display:inline"
       id="g3932"
       transform="matrix(0.65798,0,0,0.65798,-210.01301,725.98941)"
       inkscape:export-filename="/home/sebastien/src/grub-themes/linuxmint-02/keyboard-enter.png"
       inkscape:export-xdpi="90"
       inkscape:export-ydpi="90">
      <path
         sodipodi:nodetypes="sssssssss"
         style="fill:#2f2930;stroke:#ffffff;stroke-width:2.7019999;stroke-linecap:round;stroke-linejoin:round;stroke-miterlimit:13.65400028"
         id="path3915"
         d="m 505.49556,311.9569 66.673,0 c 3.1187,0 5.6294,2.2456 5.6294,5.0351 l 0,35.862 c 0,2.7894 -2.5107,5.0351 -5.6294,5.0351 l -66.673,0 c -3.1187,0 -5.6294,-2.2456 -5.6294,-5.0351 l 0,-35.862 c 0,-2.7895 2.5107,-5.0351 5.6294,-5.0351 z"
         inkscape:connector-curvature="0" />
      <path
         style="fill:#ffffff;fill-rule:evenodd;stroke-width:0.727"
         inkscape:connector-curvature="0"
         d="m 532.13867,322.22668 0,9.1188 -15.282,0 0,-2.8708 -6.8391,3.8839 6.8391,3.9684 0,-2.9552 17.224,0 0,-11.145 -1.942,0 z"
         id="path40" />
    </g>
    <text
       xml:space="preserve"
       style="font-style:normal;font-weight:normal;font-size:15px;line-height:125%;font-family:sans-serif;text-align:start;letter-spacing:0px;word-spacing:0px;text-anchor:start;fill:#000000;fill-opacity:1;stroke:none;stroke-width:1px;stroke-linecap:butt;stroke-linejoin:miter;stroke-opacity:1"
       x="23.353025"
       y="974.18524"
       id="text3359"
       sodipodi:linespacing="125%"><tspan
         sodipodi:role="line"
         id="tspan3361"
         x="23.353025"
         y="974.18524"
         style="font-style:normal;font-variant:normal;font-weight:bold;font-stretch:normal;font-size:12.5px;font-family:sans-serif;-inkscape-font-specification:'sans-serif Bold';fill:#ffffff;fill-opacity:1">select</tspan></text>
    <text
       xml:space="preserve"
       style="color:#000000;font-style:normal;font-variant:normal;font-weight:bold;font-stretch:normal;font-size:12.5px;line-height:125%;font-family:sans-serif;-inkscape-font-specification:'sans-serif Bold';text-indent:0;text-align:start;text-decoration:none;text-decoration-line:none;text-decoration-style:solid;text-decoration-color:#000000;letter-spacing:0px;word-spacing:0px;text-transform:none;direction:ltr;block-progression:tb;writing-mode:lr-tb;baseline-shift:baseline;text-anchor:start;white-space:normal;clip-rule:nonzero;display:inline;overflow:visible;visibility:visible;opacity:1;isolation:auto;mix-blend-mode:normal;color-interpolation:sRGB;color-interpolation-filters:linearRGB;solid-color:#000000;solid-opacity:1;fill:#ffffff;fill-opacity:1;fill-rule:nonzero;stroke:none;stroke-width:0.99999994px;stroke-linecap:butt;stroke-linejoin:miter;stroke-miterlimit:4;stroke-dasharray:none;stroke-dashoffset:0;stroke-opacity:1;color-rendering:auto;image-rendering:auto;shape-rendering:auto;text-rendering:auto;enable-background:accumulate"
       x="119.43848"
       y="974.16449"
       id="text4167"
       sodipodi:linespacing="125%"><tspan
         sodipodi:role="line"
         x="119.43848"
         y="974.16449"
         id="tspan4171">boot</tspan></text>
    <text
       xml:space="preserve"
       style="color:#000000;font-style:normal;font-variant:normal;font-weight:bold;font-stretch:normal;font-size:12.5px;line-height:125%;font-family:sans-serif;-inkscape-font-specification:'sans-serif Bold';text-indent:0;text-align:start;text-decoration:none;text-decoration-line:none;text-decoration-style:solid;text-decoration-color:#000000;letter-spacing:0px;word-spacing:0px;text-transform:none;direction:ltr;block-progression:tb;writing-mode:lr-tb;baseline-shift:baseline;text-anchor:start;white-space:normal;clip-rule:nonzero;display:inline;overflow:visible;visibility:visible;opacity:1;isolation:auto;mix-blend-mode:normal;color-interpolation:sRGB;color-interpolation-filters:linearRGB;solid-color:#000000;solid-opacity:1;fill:#ffffff;fill-opacity:1;fill-rule:nonzero;stroke:none;stroke-width:0.99999994px;stroke-linecap:butt;stroke-linejoin:miter;stroke-miterlimit:4;stroke-dasharray:none;stroke-dashoffset:0;stroke-opacity:1;color-rendering:auto;image-rendering:auto;shape-rendering:auto;text-rendering:auto;enable-background:accumulate"
       x="23.462889"
       y="1030.1852"
       id="text4175"
       sodipodi:linespacing="125%"><tspan
         sodipodi:role="line"
         id="tspan4177"
         x="23.462889"
         y="1030.1852">edit</tspan></text>
    <text
       xml:space="preserve"
       style="color:#000000;font-style:normal;font-variant:normal;font-weight:bold;font-stretch:normal;font-size:12.5px;line-height:125%;font-family:sans-serif;-inkscape-font-specification:'sans-serif Bold';text-indent:0;text-align:start;text-decoration:none;text-decoration-line:none;text-decoration-style:solid;text-decoration-color:#000000;letter-spacing:0px;word-spacing:0px;text-transform:none;direction:ltr;block-progression:tb;writing-mode:lr-tb;baseline-shift:baseline;text-anchor:start;white-space:normal;clip-rule:nonzero;display:inline;overflow:visible;visibility:visible;opacity:1;isolation:auto;mix-blend-mode:normal;color-interpolation:sRGB;color-interpolation-filters:linearRGB;solid-color:#000000;solid-opacity:1;fill:#ffffff;fill-opacity:1;fill-rule:nonzero;stroke:none;stroke-width:0.99999994px;stroke-linecap:butt;stroke-linejoin:miter;stroke-miterlimit:4;stroke-dasharray:none;stroke-dashoffset:0;stroke-opacity:1;color-rendering:auto;image-rendering:auto;shape-rendering:auto;text-rendering:auto;enable-background:accumulate"
       x="87.462891"
       y="1030.1852"
       id="text4179"
       sodipodi:linespacing="125%"><tspan
         sodipodi:role="line"
         x="87.462891"
         y="1030.1852"
         id="tspan3362">command-line</tspan></text>
    <text
       xml:space="preserve"
       style="color:#000000;font-style:normal;font-variant:normal;font-weight:bold;font-stretch:normal;font-size:12.5px;line-height:125%;font-family:sans-serif;-inkscape-font-specification:'sans-serif Bold';text-indent:0;text-align:start;text-decoration:none;text-decoration-line:none;text-decoration-style:solid;text-decoration-color:#000000;letter-spacing:0px;word-spacing:0px;text-transform:none;direction:ltr;block-progression:tb;writing-mode:lr-tb;baseline-shift:baseline;text-anchor:start;white-space:normal;clip-rule:nonzero;display:inline;overflow:visible;visibility:visible;opacity:1;isolation:auto;mix-blend-mode:normal;color-interpolation:sRGB;color-interpolation-filters:linearRGB;solid-color:#000000;solid-opacity:1;fill:#ffffff;fill-opacity:1;fill-rule:nonzero;stroke:none;stroke-width:0.99999994px;stroke-linecap:butt;stroke-linejoin:miter;stroke-miterlimit:4;stroke-dasharray:none;stroke-dashoffset:0;stroke-opacity:1;color-rendering:auto;image-rendering:auto;shape-rendering:auto;text-rendering:auto;enable-background:accumulate"
       x="214.9502"
       y="1030.1852"
       id="text4183"
       sodipodi:linespacing="125%"><tspan
         sodipodi:role="line"
         x="214.9502"
         y="1030.1852"
         id="tspan3366">back</tspan></text>
  </g>
</svg>
