<?xml version="1.0" encoding="UTF-8" standalone="no"?>
<!-- Created with Inkscape (http://www.inkscape.org/) -->

<svg
   xmlns:dc="http://purl.org/dc/elements/1.1/"
   xmlns:cc="http://creativecommons.org/ns#"
   xmlns:rdf="http://www.w3.org/1999/02/22-rdf-syntax-ns#"
   xmlns:svg="http://www.w3.org/2000/svg"
   xmlns="http://www.w3.org/2000/svg"
   xmlns:sodipodi="http://sodipodi.sourceforge.net/DTD/sodipodi-0.dtd"
   xmlns:inkscape="http://www.inkscape.org/namespaces/inkscape"
   width="252"
   height="104"
   viewBox="0 0 252.00001 104.00001"
   id="svg4135"
   version="1.1"
   inkscape:version="0.91 r13725"
   sodipodi:docname="helpmenu-en.svg"
   inkscape:export-filename="/home/sebastien/Sources/grub-themes/Grub2-theme-Sunshine-LinuxMint-master/Sunshine-LinuxMint/helpmenu-en.png"
   inkscape:export-xdpi="90"
   inkscape:export-ydpi="90">
  <defs
     id="defs4137" />
  <sodipodi:namedview
     id="base"
     pagecolor="#c1deff"
     bordercolor="#666666"
     borderopacity="1.0"
     inkscape:pageopacity="0"
     inkscape:pageshadow="2"
     inkscape:zoom="2"
     inkscape:cx="126"
     inkscape:cy="33.172119"
     inkscape:document-units="px"
     inkscape:current-layer="layer1"
     showgrid="false"
     units="px"
     inkscape:window-width="1024"
     inkscape:window-height="550"
     inkscape:window-x="0"
     inkscape:window-y="0"
     inkscape:window-maximized="1"
     fit-margin-top="12"
     fit-margin-left="12"
     fit-margin-right="12"
     fit-margin-bottom="12"
     showguides="false"
     inkscape:guide-bbox="true" />
  <metadata
     id="metadata4140">
    <rdf:RDF>
      <cc:Work
         rdf:about="">
        <dc:format>image/svg+xml</dc:format>
        <dc:type
           rdf:resource="http://purl.org/dc/dcmitype/StillImage" />
        <dc:title />
      </cc:Work>
    </rdf:RDF>
  </metadata>
  <g
     inkscape:label="Calque 1"
     inkscape:groupmode="layer"
     id="layer1"
     transform="translate(-19.999999,-928.36221)">
    <path
       style="fill:#2f2930;stroke:#ffffff;stroke-width:1.88244307;stroke-linecap:round;stroke-linejoin:round;stroke-miterlimit:13.65400028"
       id="path12"
       d="m 234.86316,992.95049 22.27372,0 c 2.17275,0 3.92192,1.56455 3.92192,3.50788 l 0,17.45473 c 0,1.9434 -1.74917,3.5079 -3.92192,3.5079 l -22.27372,0 c -2.17275,0 -3.92192,-1.5645 -3.92192,-3.5079 l 0,-17.45473 c 0,-1.94333 1.74917,-3.50788 3.92192,-3.50788 z"
       inkscape:connector-curvature="0" />
    <path
       style="fill:#ffffff;stroke:#ffffff;stroke-width:0.25000003;stroke-miterlimit:4;stroke-dasharray:none;stroke-opacity:1"
       inkscape:connector-curvature="0"
       d="m 236.40104,997.37826 5.71823,0 0,1.02978 -4.49457,0 0,2.67736 4.30682,0 0,1.0297 -4.30682,0 0,3.2772 4.60364,0 0,1.0296 -5.8272,0 0,-9.04364 z m 12.12695,2.45937 0,1.05397 c -0.31499,-0.1616 -0.6421,-0.2827 -0.9813,-0.3634 -0.33923,-0.081 -0.69054,-0.1213 -1.05399,-0.1213 -0.55324,0 -0.96817,0.085 -1.2448,0.2544 -0.27663,0.1696 -0.41493,0.4241 -0.41493,0.7632 0,0.2585 0.099,0.4615 0.29681,0.6088 0.19789,0.1475 0.59565,0.2878 1.1933,0.4211 l 0.38167,0.085 c 0.7915,0.1696 1.35386,0.4089 1.687,0.7178 0.33314,0.309 0.49969,0.74 0.49969,1.2933 0,0.63 -0.24934,1.1288 -0.74809,1.4962 -0.4987,0.3674 -1.18417,0.5512 -2.05645,0.5512 -0.36345,0 -0.74202,-0.035 -1.13575,-0.1061 -0.39375,-0.071 -0.80866,-0.1766 -1.24481,-0.3179 l 0,-1.151 c 0.41193,0.2139 0.81776,0.3746 1.21752,0.4815 0.39981,0.1076 0.79553,0.1605 1.18726,0.1605 0.52495,0 0.92877,-0.09 1.21146,-0.2694 0.28266,-0.1798 0.42402,-0.4332 0.42402,-0.7604 0,-0.3027 -0.10191,-0.535 -0.30591,-0.6965 -0.20393,-0.1616 -0.65118,-0.3169 -1.34176,-0.4664 l -0.38772,-0.091 c -0.69052,-0.1458 -1.18931,-0.3685 -1.49616,-0.6693 -0.30693,-0.3009 -0.46034,-0.7139 -0.46034,-1.2388 0,-0.6381 0.22613,-1.1307 0.67844,-1.47799 0.45228,-0.3473 1.09429,-0.52096 1.92625,-0.52096 0.41188,0 0.79955,0.0303 1.16304,0.0909 0.36345,0.0607 0.69863,0.15147 1.00555,0.27262 z m 7.02655,0.0605 0,1.04187 c -0.31498,-0.1737 -0.63098,-0.3039 -0.94797,-0.3907 -0.31701,-0.087 -0.63704,-0.1302 -0.96009,-0.1302 -0.72286,0 -1.2842,0.2292 -1.68403,0.6875 -0.39978,0.4584 -0.59967,1.1015 -0.59967,1.9293 0,0.828 0.19989,1.4711 0.59967,1.9293 0.39981,0.4584 0.96113,0.6876 1.68403,0.6876 0.32305,0 0.64308,-0.043 0.96009,-0.1296 0.31699,-0.087 0.63299,-0.217 0.94797,-0.3908 l 0,1.0298 c -0.31096,0.1458 -0.63298,0.2544 -0.96615,0.3271 -0.33315,0.072 -0.68752,0.1089 -1.06312,0.1089 -1.02168,0 -1.8334,-0.321 -2.43503,-0.9632 -0.6017,-0.6421 -0.90257,-1.5083 -0.90257,-2.5984 0,-1.1066 0.3039,-1.9768 0.91167,-2.6108 0.60774,-0.63401 1.44067,-0.95103 2.49865,-0.95103 0.34325,0 0.6784,0.0353 1.00555,0.10603 0.32706,0.0707 0.64408,0.17666 0.951,0.31799 z"
       id="path14" />
    <path
       style="fill:#2f2930;stroke:#ffffff;stroke-width:1.77786195;stroke-linecap:round;stroke-linejoin:round;stroke-miterlimit:13.65400028"
       id="path178"
       d="m 26.592964,987.25079 22.814141,0 c 2.052042,0 3.704032,1.47756 3.704032,3.31299 l 0,23.59652 c 0,1.8353 -1.65199,3.313 -3.704032,3.313 l -22.814141,0 c -2.052042,0 -3.704032,-1.4776 -3.704032,-3.313 l 0,-23.59652 c 0,-1.83543 1.65199,-3.31299 3.704032,-3.31299 z"
       inkscape:connector-curvature="0" />
    <path
       style="fill:#ffffff;stroke:#ffffff;stroke-opacity:1;stroke-width:0.50000005;stroke-miterlimit:4;stroke-dasharray:none"
       id="path202"
       d="m 28.500091,991.55496 8.74485,0 0,1.57482 -6.873654,0 0,4.09453 6.586446,0 0,1.57481 -6.586446,0 0,5.01168 7.040354,0 0,1.5747 -8.911649,0 0,-13.83035 z"
       inkscape:connector-curvature="0" />
    <path
       style="fill:#2f2930;stroke:#ffffff;stroke-width:1.77786195;stroke-linecap:round;stroke-linejoin:round;stroke-miterlimit:13.65400028"
       id="path354"
       d="m 58.592947,931.25081 22.814141,0 c 2.051976,0 3.704032,1.47756 3.704032,3.31299 l 0,23.59648 c 0,1.83537 -1.65199,3.313 -3.704032,3.313 l -22.814141,0 c -2.051976,0 -3.704032,-1.47763 -3.704032,-3.313 l 0,-23.59648 c 0,-1.83543 1.65199,-3.31299 3.704032,-3.31299 z"
       inkscape:connector-curvature="0" />
    <path
       style="fill:#ffffff;fill-rule:evenodd;stroke-width:0.727"
       inkscape:connector-curvature="0"
       d="m 69.777779,933.76338 -5.875038,10.12499 4.375041,0 0,14.74992 2.874895,0 0,-14.74992 4.375041,0 -5.749939,-10.12499 z"
       id="path368" />
    <path
       style="fill:#2f2930;stroke:#ffffff;stroke-width:1.77786195;stroke-linecap:round;stroke-linejoin:round;stroke-miterlimit:13.65400028"
       id="path356"
       d="m 26.592949,931.25088 22.814141,0 c 2.051976,0 3.704032,1.47762 3.704032,3.31299 l 0,23.59648 c 0,1.83537 -1.65199,3.31293 -3.704032,3.31293 l -22.814141,0 c -2.052108,0 -3.704032,-1.47756 -3.704032,-3.31293 l 0,-23.59648 c 0,-1.83537 1.651924,-3.31299 3.704032,-3.31299 z"
       inkscape:connector-curvature="0" />
    <path
       style="fill:#ffffff;fill-rule:evenodd;stroke-width:0.727"
       inkscape:connector-curvature="0"
       d="m 36.299629,934.07255 0,14.8756 -4.37504,0 5.875035,9.99987 5.749941,-9.99987 -4.374894,0 0,-14.8756 -2.875042,0 z"
       id="path370" />
    <path
       style="fill:#2f2930;stroke:#ffffff;stroke-width:1.77786195;stroke-linecap:round;stroke-linejoin:round;stroke-miterlimit:13.65400028"
       id="path282"
       d="m 90.592963,987.25079 22.814137,0 c 2.05205,0 3.70404,1.47756 3.70404,3.31299 l 0,23.59652 c 0,1.8353 -1.65199,3.313 -3.70404,3.313 l -22.814137,0 c -2.052042,0 -3.704033,-1.4777 -3.704033,-3.313 l 0,-23.59652 c 0,-1.83543 1.651991,-3.31299 3.704033,-3.31299 z"
       inkscape:connector-curvature="0" />
    <path
       style="fill:#ffffff;stroke:#ffffff;stroke-opacity:1;stroke-width:0.50000005;stroke-miterlimit:4;stroke-dasharray:none"
       id="path302"
       d="m 102.3451,992.32824 0,1.97316 c -0.62997,-0.58668 -1.30162,-1.02518 -2.0148,-1.31545 -0.713305,-0.2902 -1.471376,-0.43537 -2.274178,-0.43537 -1.581028,0 -2.791447,0.48327 -3.631359,1.44975 -0.839892,0.96652 -1.259868,2.36379 -1.259868,4.19187 0,1.8218 0.419966,3.2158 1.259868,4.1824 0.839921,0.9665 2.050331,1.4498 3.631359,1.4498 0.802821,0 1.560893,-0.1455 2.274178,-0.4355 0.71327,-0.2902 1.38491,-0.7287 2.0148,-1.3153 l 0,1.9545 c -0.65466,0.4447 -1.34781,0.7782 -2.07974,1.0005 -0.731862,0.2223 -1.505331,0.3336 -2.320569,0.3336 -2.093561,0 -3.742491,-0.6408 -4.946792,-1.9223 -1.2043,-1.2814 -1.806451,-3.0308 -1.806451,-5.24778 0,-2.22325 0.60214,-3.97561 1.806451,-5.25709 1.204311,-1.28148 2.853231,-1.92222 4.946792,-1.92222 0.827575,0 1.607281,0.10965 2.339119,0.32884 0.73183,0.21927 1.41887,0.54814 2.06119,0.98659 z"
       inkscape:connector-curvature="0" />
    <path
       inkscape:connector-curvature="0"
       d="m 122.59296,931.25081 43.8695,0 c 2.05204,0 3.70403,1.47756 3.70403,3.313 l 0,23.59647 c 0,1.83537 -1.65199,3.313 -3.70403,3.313 l -43.8695,0 c -2.05204,0 -3.70403,-1.47756 -3.70403,-3.313 l 0,-23.59647 c 0,-1.83544 1.65199,-3.313 3.70403,-3.313 z"
       id="path3915"
       style="fill:#2f2930;stroke:#ffffff;stroke-width:1.77786195;stroke-linecap:round;stroke-linejoin:round;stroke-miterlimit:13.65400028"
       sodipodi:nodetypes="sssssssss" />
    <path
       id="path40"
       d="m 155.74929,934.48734 0,13.49997 -22.6243,0 0,-4.25009 -10.12499,5.74995 10.12499,5.87504 0,-4.37505 25.49935,0 0,-16.49966 -2.87505,0 z"
       inkscape:connector-curvature="0"
       style="fill:#ffffff;fill-rule:evenodd;stroke-width:0.727" />
    <text
       xml:space="preserve"
       style="font-style:normal;font-weight:normal;font-size:15px;line-height:125%;font-family:sans-serif;text-align:start;letter-spacing:0px;word-spacing:0px;text-anchor:start;fill:#000000;fill-opacity:1;stroke:none;stroke-width:1px;stroke-linecap:butt;stroke-linejoin:miter;stroke-opacity:1"
       x="23.353025"
       y="977.1499"
       id="text3359"
       sodipodi:linespacing="125%"><tspan
         sodipodi:role="line"
         id="tspan3361"
         x="23.353025"
         y="977.1499"
         style="font-style:normal;font-variant:normal;font-weight:bold;font-stretch:normal;font-size:17.50000191px;font-family:sans-serif;-inkscape-font-specification:'sans-serif Bold';fill:#ffffff;fill-opacity:1">select</tspan></text>
    <text
       xml:space="preserve"
       style="color:#000000;font-style:normal;font-variant:normal;font-weight:bold;font-stretch:normal;font-size:12.5px;line-height:125%;font-family:sans-serif;-inkscape-font-specification:'sans-serif Bold';text-indent:0;text-align:start;text-decoration:none;text-decoration-line:none;text-decoration-style:solid;text-decoration-color:#000000;letter-spacing:0px;word-spacing:0px;text-transform:none;direction:ltr;block-progression:tb;writing-mode:lr-tb;baseline-shift:baseline;text-anchor:start;white-space:normal;clip-rule:nonzero;display:inline;overflow:visible;visibility:visible;opacity:1;isolation:auto;mix-blend-mode:normal;color-interpolation:sRGB;color-interpolation-filters:linearRGB;solid-color:#000000;solid-opacity:1;fill:#ffffff;fill-opacity:1;fill-rule:nonzero;stroke:none;stroke-width:0.99999994px;stroke-linecap:butt;stroke-linejoin:miter;stroke-miterlimit:4;stroke-dasharray:none;stroke-dashoffset:0;stroke-opacity:1;color-rendering:auto;image-rendering:auto;shape-rendering:auto;text-rendering:auto;enable-background:accumulate"
       x="119.43848"
       y="977.12915"
       id="text4167"
       sodipodi:linespacing="125%"><tspan
         sodipodi:role="line"
         x="119.43848"
         y="977.12915"
         id="tspan4171"
         style="font-size:17.50000191px">boot</tspan></text>
    <text
       xml:space="preserve"
       style="color:#000000;font-style:normal;font-variant:normal;font-weight:bold;font-stretch:normal;font-size:12.5px;line-height:125%;font-family:sans-serif;-inkscape-font-specification:'sans-serif Bold';text-indent:0;text-align:start;text-decoration:none;text-decoration-line:none;text-decoration-style:solid;text-decoration-color:#000000;letter-spacing:0px;word-spacing:0px;text-transform:none;direction:ltr;block-progression:tb;writing-mode:lr-tb;baseline-shift:baseline;text-anchor:start;white-space:normal;clip-rule:nonzero;display:inline;overflow:visible;visibility:visible;opacity:1;isolation:auto;mix-blend-mode:normal;color-interpolation:sRGB;color-interpolation-filters:linearRGB;solid-color:#000000;solid-opacity:1;fill:#ffffff;fill-opacity:1;fill-rule:nonzero;stroke:none;stroke-width:0.99999994px;stroke-linecap:butt;stroke-linejoin:miter;stroke-miterlimit:4;stroke-dasharray:none;stroke-dashoffset:0;stroke-opacity:1;color-rendering:auto;image-rendering:auto;shape-rendering:auto;text-rendering:auto;enable-background:accumulate"
       x="23.462889"
       y="1031.1498"
       id="text4175"
       sodipodi:linespacing="125%"><tspan
         sodipodi:role="line"
         id="tspan4177"
         x="23.462889"
         y="1031.1498"
         style="font-size:15.00000191px">edit</tspan></text>
    <text
       xml:space="preserve"
       style="color:#000000;font-style:normal;font-variant:normal;font-weight:bold;font-stretch:normal;font-size:12.5px;line-height:125%;font-family:sans-serif;-inkscape-font-specification:'sans-serif Bold';text-indent:0;text-align:start;text-decoration:none;text-decoration-line:none;text-decoration-style:solid;text-decoration-color:#000000;letter-spacing:0px;word-spacing:0px;text-transform:none;direction:ltr;block-progression:tb;writing-mode:lr-tb;baseline-shift:baseline;text-anchor:start;white-space:normal;clip-rule:nonzero;display:inline;overflow:visible;visibility:visible;opacity:1;isolation:auto;mix-blend-mode:normal;color-interpolation:sRGB;color-interpolation-filters:linearRGB;solid-color:#000000;solid-opacity:1;fill:#ffffff;fill-opacity:1;fill-rule:nonzero;stroke:none;stroke-width:0.99999994px;stroke-linecap:butt;stroke-linejoin:miter;stroke-miterlimit:4;stroke-dasharray:none;stroke-dashoffset:0;stroke-opacity:1;color-rendering:auto;image-rendering:auto;shape-rendering:auto;text-rendering:auto;enable-background:accumulate"
       x="87.462891"
       y="1031.1498"
       id="text4179"
       sodipodi:linespacing="125%"><tspan
         sodipodi:role="line"
         x="87.462891"
         y="1031.1498"
         id="tspan3362"
         style="font-size:15.00000191px">command-line</tspan></text>
    <text
       xml:space="preserve"
       style="color:#000000;font-style:normal;font-variant:normal;font-weight:bold;font-stretch:normal;font-size:12.5px;line-height:125%;font-family:sans-serif;-inkscape-font-specification:'sans-serif Bold';text-indent:0;text-align:start;text-decoration:none;text-decoration-line:none;text-decoration-style:solid;text-decoration-color:#000000;letter-spacing:0px;word-spacing:0px;text-transform:none;direction:ltr;block-progression:tb;writing-mode:lr-tb;baseline-shift:baseline;text-anchor:start;white-space:normal;clip-rule:nonzero;display:inline;overflow:visible;visibility:visible;opacity:1;isolation:auto;mix-blend-mode:normal;color-interpolation:sRGB;color-interpolation-filters:linearRGB;solid-color:#000000;solid-opacity:1;fill:#ffffff;fill-opacity:1;fill-rule:nonzero;stroke:none;stroke-width:0.99999994px;stroke-linecap:butt;stroke-linejoin:miter;stroke-miterlimit:4;stroke-dasharray:none;stroke-dashoffset:0;stroke-opacity:1;color-rendering:auto;image-rendering:auto;shape-rendering:auto;text-rendering:auto;enable-background:accumulate"
       x="230.95021"
       y="1031.1498"
       id="text4183"
       sodipodi:linespacing="125%"><tspan
         sodipodi:role="line"
         x="230.95021"
         y="1031.1498"
         id="tspan3366"
         style="font-size:15.00000191px">back</tspan></text>
  </g>
</svg>
