<?xml version="1.0" encoding="UTF-8" standalone="no"?>
<!-- Created with Inkscape (http://www.inkscape.org/) -->

<svg
   xmlns:dc="http://purl.org/dc/elements/1.1/"
   xmlns:cc="http://creativecommons.org/ns#"
   xmlns:rdf="http://www.w3.org/1999/02/22-rdf-syntax-ns#"
   xmlns:svg="http://www.w3.org/2000/svg"
   xmlns="http://www.w3.org/2000/svg"
   xmlns:xlink="http://www.w3.org/1999/xlink"
   xmlns:sodipodi="http://sodipodi.sourceforge.net/DTD/sodipodi-0.dtd"
   xmlns:inkscape="http://www.inkscape.org/namespaces/inkscape"
   width="850"
   height="850"
   id="svg2619"
   sodipodi:version="0.32"
   inkscape:version="0.91 r13725"
   sodipodi:docname="mint-logo.svg"
   inkscape:output_extension="org.inkscape.output.svg.inkscape"
   inkscape:export-filename="/home/sebastien/src/grub-themes/linuxmint/logo.png"
   inkscape:export-xdpi="40.66"
   inkscape:export-ydpi="40.66"
   version="1.0"
   sodipodi:modified="true">
  <defs
     id="defs2621">
    <inkscape:perspective
       sodipodi:type="inkscape:persp3d"
       inkscape:vp_x="0 : 384 : 1"
       inkscape:vp_y="0 : 1000 : 0"
       inkscape:vp_z="1024 : 384 : 1"
       inkscape:persp3d-origin="512 : 256 : 1"
       id="perspective277" />
    <linearGradient
       inkscape:collect="always"
       xlink:href="#linearGradient3312"
       id="linearGradient3538"
       gradientUnits="userSpaceOnUse"
       gradientTransform="matrix(1.091261,0,0,1.091261,79.238251,-55.750939)"
       x1="61.42857"
       y1="362.14285"
       x2="116.42857"
       y2="408.57144" />
    <filter
       inkscape:collect="always"
       id="filter3573">
      <feGaussianBlur
         inkscape:collect="always"
         stdDeviation="1.6284922"
         id="feGaussianBlur3575" />
    </filter>
    <pattern
       inkscape:collect="always"
       xlink:href="#pattern4481"
       id="pattern4486"
       patternTransform="matrix(0.4295427,0,0,0.4295427,-4.3554687e-6,-4.3457032e-7)" />
    <pattern
       inkscape:collect="always"
       xlink:href="#pattern4467"
       id="pattern4481"
       patternTransform="matrix(0.4295427,0,0,0.4295427,-130.66779,-129.37468)" />
    <linearGradient
       id="linearGradient3588">
      <stop
         style="stop-color:#bfe699;stop-opacity:1;"
         offset="0"
         id="stop3590" />
      <stop
         style="stop-color:#313e24;stop-opacity:1;"
         offset="1"
         id="stop3592" />
    </linearGradient>
    <linearGradient
       id="linearGradient3570">
      <stop
         id="stop3572"
         offset="0"
         style="stop-color:#e5ffcb;stop-opacity:1;" />
      <stop
         id="stop3574"
         offset="1"
         style="stop-color:#bfff80;stop-opacity:1;" />
    </linearGradient>
    <linearGradient
       id="linearGradient3303">
      <stop
         style="stop-color:#bfff80;stop-opacity:1;"
         offset="0"
         id="stop3305" />
      <stop
         style="stop-color:#6a8b4a;stop-opacity:1;"
         offset="1"
         id="stop3307" />
    </linearGradient>
    <linearGradient
       id="linearGradient3431">
      <stop
         id="stop3433"
         offset="0"
         style="stop-color:#3d3d3d;stop-opacity:1;" />
      <stop
         id="stop3435"
         offset="1"
         style="stop-color:#000000;stop-opacity:0.11400651;" />
    </linearGradient>
    <linearGradient
       id="linearGradient3349">
      <stop
         style="stop-color:#d3d3d3;stop-opacity:1;"
         offset="0"
         id="stop3351" />
      <stop
         style="stop-color:#ffffff;stop-opacity:1;"
         offset="1"
         id="stop3353" />
    </linearGradient>
    <linearGradient
       id="linearGradient3312">
      <stop
         style="stop-color:#c7f994;stop-opacity:1;"
         offset="0"
         id="stop3314" />
      <stop
         style="stop-color:#87cf3e;stop-opacity:1;"
         offset="1"
         id="stop3316" />
    </linearGradient>
    <linearGradient
       inkscape:collect="always"
       xlink:href="#linearGradient3312"
       id="linearGradient3335"
       gradientUnits="userSpaceOnUse"
       x1="61.42857"
       y1="362.14285"
       x2="116.42857"
       y2="408.57144" />
    <linearGradient
       inkscape:collect="always"
       xlink:href="#linearGradient3349"
       id="linearGradient3374"
       gradientUnits="userSpaceOnUse"
       x1="140.66374"
       y1="424.33243"
       x2="67.175148"
       y2="348.57098" />
    <linearGradient
       inkscape:collect="always"
       xlink:href="#linearGradient3312"
       id="linearGradient3377"
       gradientUnits="userSpaceOnUse"
       x1="61.42857"
       y1="362.14285"
       x2="116.42857"
       y2="408.57144"
       gradientTransform="translate(0,-9.49911)" />
    <linearGradient
       inkscape:collect="always"
       xlink:href="#linearGradient3312"
       id="linearGradient3398"
       gradientUnits="userSpaceOnUse"
       gradientTransform="translate(0,-9.49911)"
       x1="61.42857"
       y1="362.14285"
       x2="116.42857"
       y2="408.57144" />
    <linearGradient
       inkscape:collect="always"
       xlink:href="#linearGradient3349"
       id="linearGradient3400"
       gradientUnits="userSpaceOnUse"
       x1="140.66374"
       y1="424.33243"
       x2="67.175148"
       y2="348.57098" />
    <linearGradient
       inkscape:collect="always"
       xlink:href="#linearGradient3312"
       id="linearGradient3416"
       gradientUnits="userSpaceOnUse"
       gradientTransform="matrix(1,0,0,-1,0,649.49911)"
       x1="61.42857"
       y1="362.14285"
       x2="116.42857"
       y2="408.57144" />
    <linearGradient
       inkscape:collect="always"
       xlink:href="#linearGradient3349"
       id="linearGradient2254"
       gradientUnits="userSpaceOnUse"
       x1="140.66374"
       y1="424.33243"
       x2="67.175148"
       y2="348.57098" />
    <linearGradient
       inkscape:collect="always"
       xlink:href="#linearGradient3431"
       id="linearGradient2259"
       gradientUnits="userSpaceOnUse"
       spreadMethod="pad"
       x1="70.491508"
       y1="416.38858"
       x2="113.64215"
       y2="375.87961" />
    <linearGradient
       inkscape:collect="always"
       xlink:href="#linearGradient3312"
       id="linearGradient2262"
       gradientUnits="userSpaceOnUse"
       gradientTransform="translate(0,-9.49911)"
       x1="61.42857"
       y1="362.14285"
       x2="116.42857"
       y2="408.57144" />
    <filter
       inkscape:collect="always"
       id="filter3291">
      <feGaussianBlur
         inkscape:collect="always"
         stdDeviation="0.400625"
         id="feGaussianBlur3293" />
    </filter>
    <linearGradient
       inkscape:collect="always"
       xlink:href="#linearGradient3312"
       id="linearGradient3311"
       gradientUnits="userSpaceOnUse"
       gradientTransform="translate(0,-9.49911)"
       x1="61.42857"
       y1="362.14285"
       x2="116.42857"
       y2="408.57144" />
    <linearGradient
       inkscape:collect="always"
       xlink:href="#linearGradient3431"
       id="linearGradient3313"
       gradientUnits="userSpaceOnUse"
       spreadMethod="pad"
       x1="70.491508"
       y1="416.38858"
       x2="113.64215"
       y2="375.87961" />
    <linearGradient
       inkscape:collect="always"
       xlink:href="#linearGradient3349"
       id="linearGradient3315"
       gradientUnits="userSpaceOnUse"
       x1="140.66374"
       y1="424.33243"
       x2="67.175148"
       y2="348.57098" />
    <linearGradient
       inkscape:collect="always"
       xlink:href="#linearGradient3349"
       id="linearGradient3318"
       gradientUnits="userSpaceOnUse"
       x1="140.66374"
       y1="424.33243"
       x2="67.175148"
       y2="348.57098" />
    <filter
       inkscape:collect="always"
       id="filter3546">
      <feGaussianBlur
         inkscape:collect="always"
         stdDeviation="0.15992437"
         id="feGaussianBlur3548" />
    </filter>
    <linearGradient
       inkscape:collect="always"
       xlink:href="#linearGradient3588"
       id="linearGradient3737"
       gradientUnits="userSpaceOnUse"
       x1="26.795013"
       y1="216.34912"
       x2="149.90654"
       y2="323.98651" />
    <pattern
       patternUnits="userSpaceOnUse"
       width="256"
       height="256"
       patternTransform="translate(-297.8418,85.357452)"
       id="pattern4467">
      <image
         sodipodi:absref="/home/sebastien/src/grub-themes/linuxmint/metal5.jpg"
         xlink:href="metal5.jpg"
         y="0"
         x="0"
         id="image4464"
         height="256"
         width="256" />
    </pattern>
    <pattern
       patternUnits="userSpaceOnUse"
       width="109.96293"
       height="109.96293"
       patternTransform="translate(-130.66779,-129.37468)"
       id="pattern4483">
      <rect
         id="rect4470"
         y="0"
         x="0"
         height="109.96293"
         width="109.96293"
         style="fill:url(#pattern4486);stroke:none" />
    </pattern>
    <linearGradient
       inkscape:collect="always"
       xlink:href="#linearGradient3431"
       id="linearGradient2994"
       gradientUnits="userSpaceOnUse"
       gradientTransform="translate(0,80)"
       spreadMethod="pad"
       x1="70.491508"
       y1="416.38858"
       x2="113.64215"
       y2="375.87961" />
    <linearGradient
       inkscape:collect="always"
       xlink:href="#linearGradient3349"
       id="linearGradient3000"
       gradientUnits="userSpaceOnUse"
       gradientTransform="matrix(1.0484996,0,0,1.0484996,59.525242,85.095989)"
       x1="148.5945"
       y1="426.11398"
       x2="100.47015"
       y2="379.95963" />
    <linearGradient
       inkscape:collect="always"
       xlink:href="#linearGradient3312"
       id="linearGradient3006"
       gradientUnits="userSpaceOnUse"
       gradientTransform="matrix(1.0484996,0,0,1.0484996,59.525242,75.136176)"
       x1="61.42857"
       y1="362.14285"
       x2="116.42857"
       y2="408.57144" />
    <linearGradient
       inkscape:collect="always"
       xlink:href="#linearGradient3312"
       id="linearGradient4003"
       gradientUnits="userSpaceOnUse"
       gradientTransform="matrix(1.0484996,0,0,1.0484996,210.01137,213.49817)"
       x1="61.42857"
       y1="362.14285"
       x2="116.42857"
       y2="408.57144" />
    <linearGradient
       inkscape:collect="always"
       xlink:href="#linearGradient3431"
       id="linearGradient4005"
       gradientUnits="userSpaceOnUse"
       gradientTransform="translate(0,80)"
       spreadMethod="pad"
       x1="70.491508"
       y1="416.38858"
       x2="113.64215"
       y2="375.87961" />
    <linearGradient
       inkscape:collect="always"
       xlink:href="#linearGradient3349"
       id="linearGradient4007"
       gradientUnits="userSpaceOnUse"
       gradientTransform="matrix(1.0484996,0,0,1.0484996,210.01137,223.45798)"
       x1="148.5945"
       y1="426.11398"
       x2="100.47015"
       y2="379.95963" />
    <linearGradient
       inkscape:collect="always"
       xlink:href="#linearGradient3312"
       id="linearGradient2992"
       gradientUnits="userSpaceOnUse"
       gradientTransform="matrix(1.0417465,0,0,1.0417465,81.266854,19.855591)"
       x1="47.555698"
       y1="131.83339"
       x2="141.37427"
       y2="207.52625" />
    <linearGradient
       inkscape:collect="always"
       xlink:href="#linearGradient3431"
       id="linearGradient2995"
       gradientUnits="userSpaceOnUse"
       gradientTransform="translate(-11.825686,-215.33459)"
       spreadMethod="pad"
       x1="70.491508"
       y1="416.38858"
       x2="113.64215"
       y2="375.87961" />
    <linearGradient
       inkscape:collect="always"
       xlink:href="#linearGradient3349"
       id="linearGradient2997"
       gradientUnits="userSpaceOnUse"
       gradientTransform="matrix(1.0417465,0,0,1.0417465,81.266854,19.855591)"
       x1="93.412979"
       y1="209.62093"
       x2="95.111397"
       y2="116.20795" />
    <linearGradient
       inkscape:collect="always"
       xlink:href="#linearGradient3431"
       id="linearGradient2999"
       gradientUnits="userSpaceOnUse"
       gradientTransform="translate(0,80)"
       spreadMethod="pad"
       x1="70.491508"
       y1="416.38858"
       x2="113.64215"
       y2="375.87961" />
    <linearGradient
       inkscape:collect="always"
       xlink:href="#linearGradient3312"
       id="linearGradient3001"
       gradientUnits="userSpaceOnUse"
       gradientTransform="matrix(1.091261,0,0,1.091261,67.062859,-117.80387)"
       x1="61.42857"
       y1="362.14285"
       x2="116.42857"
       y2="408.57144" />
    <linearGradient
       inkscape:collect="always"
       xlink:href="#linearGradient3431"
       id="linearGradient3003"
       gradientUnits="userSpaceOnUse"
       gradientTransform="translate(0,80)"
       spreadMethod="pad"
       x1="70.491508"
       y1="416.38858"
       x2="113.64215"
       y2="375.87961" />
    <linearGradient
       inkscape:collect="always"
       xlink:href="#linearGradient3312"
       id="linearGradient3005"
       gradientUnits="userSpaceOnUse"
       gradientTransform="matrix(1.0417465,0,0,1.0417465,81.266854,19.855591)"
       x1="47.555698"
       y1="131.83339"
       x2="141.37427"
       y2="207.52625" />
    <linearGradient
       inkscape:collect="always"
       xlink:href="#linearGradient3431"
       id="linearGradient3007"
       gradientUnits="userSpaceOnUse"
       gradientTransform="translate(-11.825686,-215.33459)"
       spreadMethod="pad"
       x1="70.491508"
       y1="416.38858"
       x2="113.64215"
       y2="375.87961" />
    <linearGradient
       inkscape:collect="always"
       xlink:href="#linearGradient3349"
       id="linearGradient3009"
       gradientUnits="userSpaceOnUse"
       gradientTransform="matrix(1.0417465,0,0,1.0417465,81.266854,19.855591)"
       x1="93.412979"
       y1="209.62093"
       x2="95.111397"
       y2="116.20795" />
    <linearGradient
       inkscape:collect="always"
       xlink:href="#linearGradient3312"
       id="linearGradient2659"
       gradientUnits="userSpaceOnUse"
       gradientTransform="matrix(1.091261,0,0,1.091261,79.238251,-55.750939)"
       x1="61.42857"
       y1="362.14285"
       x2="116.42857"
       y2="408.57144" />
    <linearGradient
       inkscape:collect="always"
       xlink:href="#linearGradient3431"
       id="linearGradient2661"
       gradientUnits="userSpaceOnUse"
       gradientTransform="translate(0,80)"
       spreadMethod="pad"
       x1="70.491508"
       y1="416.38858"
       x2="113.64215"
       y2="375.87961" />
  </defs>
  <sodipodi:namedview
     id="base"
     pagecolor="#ffffff"
     bordercolor="#666666"
     borderopacity="1.0"
     gridtolerance="10000"
     guidetolerance="10"
     objecttolerance="10"
     inkscape:pageopacity="0"
     inkscape:pageshadow="2"
     inkscape:zoom="0.25431985"
     inkscape:cx="357.10179"
     inkscape:cy="459.12233"
     inkscape:document-units="px"
     inkscape:current-layer="layer1"
     inkscape:window-width="1018"
     inkscape:window-height="546"
     inkscape:window-x="0"
     inkscape:window-y="0"
     width="1024px"
     height="768px"
     showguides="true"
     inkscape:guide-bbox="true"
     showgrid="false"
     fit-margin-top="0"
     fit-margin-left="0"
     fit-margin-right="0"
     fit-margin-bottom="0"
     inkscape:window-maximized="0" />
  <metadata
     id="metadata2624">
    <rdf:RDF>
      <cc:Work
         rdf:about="">
        <dc:format>image/svg+xml</dc:format>
        <dc:type
           rdf:resource="http://purl.org/dc/dcmitype/StillImage" />
        <dc:title></dc:title>
      </cc:Work>
    </rdf:RDF>
  </metadata>
  <g
     inkscape:label="Layer 1"
     inkscape:groupmode="layer"
     id="layer1"
     transform="translate(-19.918432,45.430915)">
    <g
       id="g2650"
       transform="matrix(6.5972926,0,0,6.5972926,-781.85177,-2072.0441)">
      <path
         sodipodi:nodetypes="ccccccccccccc"
         transform="matrix(1.0429295,0,0,1.0429295,-163.96565,-107.54293)"
         id="path3543"
         d="m 331.79042,510.93347 c -21.29012,0 -39.7658,-16.13992 -39.7658,-37.41096 l -0.0191,-21.99227 0,-6.58604 -13.49776,0 0,-36.6513 56.92036,0.26806 17.80557,0.0383 c 21.30926,0 39.76579,16.12071 39.76579,37.41086 l 0,64.92334 -61.20904,0 0,0 0,0 z"
         style="display:inline;overflow:visible;visibility:visible;opacity:0.26000001;fill:#000000;fill-opacity:1;fill-rule:evenodd;stroke:none;stroke-width:1;stroke-linecap:butt;stroke-linejoin:miter;stroke-miterlimit:4;stroke-dasharray:none;stroke-dashoffset:0;stroke-opacity:1;marker:none;marker-start:none;marker-mid:none;marker-end:none;filter:url(#filter3573);enable-background:accumulate"
         inkscape:connector-curvature="0" />
      <path
         sodipodi:nodetypes="cccccccsccccc"
         id="path2576"
         d="m 237.71259,407.73851 c 0,-14.72024 0,-49.44521 0,-49.44521 0,-16.51906 -14.4866,-29.9098 -32.36077,-29.9098 l -18.55166,0 0,-0.0399 -50.17518,-0.21924 0,18.04093 c 0,0 4.09686,0 7.7022,0 5.37631,0 6.32609,3.71136 6.32609,8.84831 l 0.0399,31.89432 c 0,16.51907 14.48666,29.90979 32.34088,29.90979 l 44.08203,0 c 5.65135,0 10.59654,-3.57895 10.59654,-9.07924 z"
         style="display:inline;fill:url(#linearGradient2659);fill-opacity:1;fill-rule:evenodd"
         inkscape:connector-curvature="0" />
      <path
         transform="matrix(1.0484996,0,0,1.0484996,83.467541,-112.89106)"
         sodipodi:nodetypes="cccccsccccc"
         id="path3419"
         d="m 142.9375,500.53125 c -10.75182,-7.40935 -18.36682,-15.92034 -24.78125,-27.1875 -12.64444,-23.35809 -9.68791,-34.95326 -41,-37.6875 -9.036289,0 -15.051217,-2 -24.5625,-2 l 0,3.3125 c 10e-7,10e-6 3.758681,1.90749 7.0625,1.90749 4.926697,1e-5 5.78125,3.41765 5.78125,8.125 l 0.03125,29.15501 c -3e-6,15.13758 13.295158,27.40625 29.65625,27.40625 l 40.375,0 c 2.96358,0 5.62572,-1.16787 7.4375,-3.03125 z"
         style="display:inline;opacity:0.17514122;fill:url(#linearGradient2661);fill-opacity:1;fill-rule:nonzero;filter:url(#filter3291)"
         inkscape:connector-curvature="0" />
      <path
         transform="matrix(1.0484996,0,0,1.0484996,83.467541,-112.89106)"
         sodipodi:nodetypes="csccccsssccccsssccccccccccccccccsscc"
         id="path2620"
         d="m 105.51844,438.54009 c -3.83671,0 -7.245744,1.42445 -9.984837,4.1914 -2.737725,2.76548 -4.1752,6.21796 -4.17519,10.11421 l 0,19.69466 8.932957,0 0,-19.69466 c 0,-1.49338 0.48728,-2.66108 1.55355,-3.73818 1.06977,-1.08055 2.2026,-1.56971 3.67352,-1.56971 1.50175,0 2.61758,0.4867 3.68969,1.56971 1.06628,1.0771 1.55356,2.2448 1.55356,3.73818 l 0,19.69466 8.93297,0 0,-19.69466 c 0,-1.49338 0.48728,-2.66108 1.55356,-3.73818 1.07211,-1.08301 2.18794,-1.56971 3.68971,-1.56971 1.47093,0 2.60373,0.48916 3.6735,1.56971 1.06627,1.0771 1.55356,2.2448 1.55356,3.73818 l 0.0486,23.01222 c 0,4.90894 -4.67486,9.04618 -10.68071,9.04618 l -28.805549,-0.11326 c -4.634707,0 -8.593128,-4.51117 -8.593128,-10.30852 l 0,-43.33528 -8.447462,0 0,45.00209 c 0,4.77471 1.747181,8.96178 5.146164,12.3476 2.905193,2.8676 6.399074,4.56445 10.324689,4.98427 l 0,0.16191 32.074486,0 c 4.92872,0 9.25884,-1.83265 12.75212,-5.38904 l 0.0162,0 c 2.97102,-3.05245 4.70787,-6.70998 5.12997,-10.82624 l -0.0324,-24.58193 c 0,-3.89625 -1.43744,-7.34873 -4.17521,-10.11421 -2.73906,-2.76695 -6.14812,-4.1914 -9.98482,-4.1914 -3.76604,0 -7.06133,1.40042 -9.72593,3.96479 -2.65681,-2.56014 -5.92908,-3.96479 -9.69356,-3.96479 z"
         style="display:inline;overflow:visible;visibility:visible;fill:#000000;fill-opacity:0.08040203;fill-rule:evenodd;stroke:none;stroke-width:4.7667098;stroke-linecap:butt;stroke-linejoin:miter;stroke-miterlimit:4;stroke-dasharray:none;stroke-dashoffset:0;stroke-opacity:1;marker:none;marker-start:none;marker-mid:none;marker-end:none;filter:url(#filter3546);enable-background:accumulate"
         inkscape:connector-curvature="0" />
      <path
         id="path4130"
         d="m 193.35561,347.16391 c -4.02279,0 -7.59716,1.49353 -10.4691,4.39468 -2.87051,2.8996 -4.3777,6.51953 -4.37769,10.60474 l 0,20.64985 9.36621,0 0,-20.64985 c 0,-1.5658 0.51091,-2.79014 1.62889,-3.91948 1.12166,-1.13295 2.30943,-1.64584 3.85169,-1.64584 1.57458,0 2.74453,0.51031 3.86864,1.64584 1.11799,1.12934 1.62891,2.35368 1.62891,3.91948 l 0,20.64985 9.3662,0 0,-20.64985 c 0,-1.5658 0.51092,-2.79014 1.62892,-3.91948 1.1241,-1.13553 2.29405,-1.64584 3.86866,-1.64584 1.54227,0 2.73001,0.51289 3.85165,1.64584 1.11799,1.12934 1.62891,2.35368 1.62891,3.91948 l 0.0509,24.12831 c 0,5.14702 -4.90159,9.48491 -11.19872,9.48491 l -30.2026,-0.11875 c -4.85949,0 -9.00989,-4.72996 -9.00989,-10.80848 l 0,-45.43702 -8.85716,0 0,47.18467 c 0,5.00628 1.83192,9.39642 5.39575,12.94646 3.04609,3.00667 6.70943,4.95566 10.82542,5.39584 l 33.6301,-8e-5 c 5.16776,0 9.70788,-1.92153 13.37059,-5.6504 l 0.017,0 c 3.1151,-3.2005 4.9362,-7.03541 5.37877,-11.35131 l -0.0339,-25.77415 c 0,-4.08521 -1.50714,-7.70514 -4.37769,-10.60474 -2.87191,-2.90115 -6.44631,-4.39468 -10.46908,-4.39468 -3.94869,0 -7.4038,1.46834 -10.19764,4.15708 -2.78567,-2.68431 -6.21663,-4.15708 -10.16369,-4.15708 z"
         style="display:inline;overflow:visible;visibility:visible;fill:#ffffff;fill-opacity:1;fill-rule:evenodd;stroke:none;stroke-width:1;stroke-linecap:butt;stroke-linejoin:miter;stroke-miterlimit:4;stroke-dashoffset:0;stroke-opacity:1;marker:none;marker-start:none;marker-mid:none;marker-end:none;enable-background:accumulate"
         sodipodi:nodetypes="csccccsssccccssscccccccccccccccsscc"
         inkscape:connector-curvature="0" />
      <path
         id="path4132"
         d="m 187.84765,395.68919 0,9.25 22,0 c 5.16774,0 9.68104,-1.92738 13.34374,-5.65625 l 0.0313,0 c 3.11511,-3.20051 4.93243,-7.02785 5.375,-11.34375 l 0,-5.25 -9.34375,0 0,3.59375 c 0,5.14705 -4.89038,9.46875 -11.18751,9.46875 l -20.21874,-0.0625 z"
         style="display:inline;overflow:visible;visibility:visible;opacity:0.3;fill:#52a800;fill-opacity:1;fill-rule:evenodd;stroke:none;stroke-width:1;stroke-linecap:butt;stroke-linejoin:miter;stroke-miterlimit:4;stroke-dashoffset:0;stroke-opacity:1;marker:none;marker-start:none;marker-mid:none;marker-end:none;enable-background:accumulate"
         inkscape:connector-curvature="0" />
      <path
         sodipodi:nodetypes="ccccccccccccccccccccsccccc"
         d="m 182.74092,423.66488 c -21.29012,0 -39.76579,-16.13992 -39.76579,-37.41096 l -0.0191,-25.82763 0,-6.58603 -13.49775,0 0,-32.81595 56.92035,0.26806 17.80558,0.0383 c 21.30925,0 39.76578,16.12071 39.76578,37.41085 l 0,64.92335 -61.20904,0 0,0 0,0 z m 52.53596,-17.41567 c 0,-14.14342 0,-47.50768 0,-47.50768 0,-15.87175 -13.91893,-28.73777 -31.0927,-28.73777 l -17.82471,0 0,-0.0383 -48.20903,-0.21065 0,15.41237 c 0,0 1.93631,0 5.40037,0 3.6664,0 8.0782,3.44547 8.0782,8.50158 l 0.0383,32.56616 c 0,15.87176 13.919,28.73776 31.0736,28.73776 l 42.35465,0 c 5.42989,0 10.18131,-3.43871 10.18131,-8.72347 z"
         style="display:inline;overflow:visible;visibility:visible;fill:#ffffff;fill-opacity:1;fill-rule:evenodd;stroke:none;stroke-width:1;stroke-linecap:butt;stroke-linejoin:miter;stroke-miterlimit:4;stroke-dashoffset:0;stroke-opacity:1;marker:none;marker-start:none;marker-mid:none;marker-end:none;enable-background:accumulate"
         id="path6141"
         inkscape:connector-curvature="0" />
    </g>
  </g>
</svg>
