<?xml version="1.0" encoding="UTF-8" standalone="no"?>
<!-- Created with Inkscape (http://www.inkscape.org/) -->

<svg
   xmlns:dc="http://purl.org/dc/elements/1.1/"
   xmlns:cc="http://creativecommons.org/ns#"
   xmlns:rdf="http://www.w3.org/1999/02/22-rdf-syntax-ns#"
   xmlns:svg="http://www.w3.org/2000/svg"
   xmlns="http://www.w3.org/2000/svg"
   xmlns:xlink="http://www.w3.org/1999/xlink"
   xmlns:sodipodi="http://sodipodi.sourceforge.net/DTD/sodipodi-0.dtd"
   xmlns:inkscape="http://www.inkscape.org/namespaces/inkscape"
   version="1.0"
   width="240"
   height="78"
   id="svg2619"
   inkscape:version="0.91 r13725"
   sodipodi:docname="LinuxMint_Logo-flat-03.svg"
   inkscape:export-filename="/home/sebastien/Sources/grub-themes/Grub2-theme-Sunshine-LinuxMint-master/Sunshine-LinuxMint/LinuxMint_Logo-flat-03.png"
   inkscape:export-xdpi="90"
   inkscape:export-ydpi="90">
  <metadata
     id="metadata71">
    <rdf:RDF>
      <cc:Work
         rdf:about="">
        <dc:format>image/svg+xml</dc:format>
        <dc:type
           rdf:resource="http://purl.org/dc/dcmitype/StillImage" />
        <dc:title>Linux Mint Official Logo</dc:title>
      </cc:Work>
    </rdf:RDF>
  </metadata>
  <sodipodi:namedview
     pagecolor="#5b8bed"
     bordercolor="#666666"
     borderopacity="1"
     objecttolerance="10"
     gridtolerance="10"
     guidetolerance="10"
     inkscape:pageopacity="0"
     inkscape:pageshadow="2"
     inkscape:window-width="1024"
     inkscape:window-height="550"
     id="namedview69"
     showgrid="false"
     inkscape:zoom="3"
     inkscape:cx="164.32278"
     inkscape:cy="37.24789"
     inkscape:window-x="0"
     inkscape:window-y="0"
     inkscape:window-maximized="1"
     inkscape:current-layer="svg2619"
     showguides="true"
     inkscape:guide-bbox="true"
     fit-margin-top="1"
     fit-margin-left="2"
     fit-margin-right="2"
     fit-margin-bottom="1"
     showborder="true"
     inkscape:showpageshadow="false">
    <sodipodi:guide
       position="-463.78974,-92.001559"
       orientation="0,1"
       id="guide4405" />
  </sodipodi:namedview>
  <title
     id="title3079">Linux Mint Official Logo</title>
  <defs
     id="defs2621">
    <linearGradient
       id="linearGradient3431">
      <stop
         id="stop3433"
         style="stop-color:#3d3d3d;stop-opacity:1"
         offset="0" />
      <stop
         id="stop3435"
         style="stop-color:#000000;stop-opacity:0.11400651"
         offset="1" />
    </linearGradient>
    <linearGradient
       id="linearGradient3312">
      <stop
         id="stop3314"
         style="stop-color:#c7f994;stop-opacity:1"
         offset="0" />
      <stop
         id="stop3316"
         style="stop-color:#87cf3e;stop-opacity:1"
         offset="1" />
    </linearGradient>
    <filter
       id="filter3291"
       style="color-interpolation-filters:sRGB">
      <feGaussianBlur
         id="feGaussianBlur3293"
         stdDeviation="0.400625" />
    </filter>
    <filter
       id="filter3546"
       style="color-interpolation-filters:sRGB">
      <feGaussianBlur
         id="feGaussianBlur3548"
         stdDeviation="0.15992437" />
    </filter>
    <linearGradient
       x1="70.491508"
       y1="416.38858"
       x2="113.64215"
       y2="375.87961"
       id="linearGradient4136"
       xlink:href="#linearGradient3431"
       gradientUnits="userSpaceOnUse"
       gradientTransform="translate(0,80)"
       spreadMethod="pad" />
    <filter
       id="filter3469"
       style="color-interpolation-filters:sRGB">
      <feGaussianBlur
         id="feGaussianBlur3471"
         stdDeviation="2.7119931" />
    </filter>
    <linearGradient
       x1="61.42857"
       y1="362.14285"
       x2="116.42857"
       y2="408.57144"
       id="linearGradient3538"
       xlink:href="#linearGradient3312"
       gradientUnits="userSpaceOnUse"
       gradientTransform="matrix(2.684162,0,0,2.684162,-89.865856,-904.32339)" />
    <filter
       id="filter3573"
       style="color-interpolation-filters:sRGB">
      <feGaussianBlur
         id="feGaussianBlur3575"
         stdDeviation="1.6284922" />
    </filter>
    <filter
       id="filter3965"
       style="color-interpolation-filters:sRGB">
      <feGaussianBlur
         id="feGaussianBlur3967"
         stdDeviation="2.4743396" />
    </filter>
    <filter
       id="filter4006"
       style="color-interpolation-filters:sRGB">
      <feGaussianBlur
         id="feGaussianBlur4008"
         stdDeviation="1.6495597" />
    </filter>
    <filter
       id="filter4135"
       style="color-interpolation-filters:sRGB">
      <feGaussianBlur
         id="feGaussianBlur4137"
         stdDeviation="0.74662361" />
    </filter>
  </defs>
  <g
     id="g4201">
    <g
       transform="matrix(0.77169226,0,0,1.0112232,-360.3779,-109.06354)"
       id="g4645"
       style="fill:#ffffff;fill-opacity:1;stroke:#ffffff;stroke-width:12.5;stroke-linejoin:round;stroke-miterlimit:4;stroke-dasharray:none;stroke-opacity:1">
      <path
         inkscape:connector-curvature="0"
         style="display:inline;fill:#ffffff;fill-opacity:1;fill-rule:evenodd;stroke:#ffffff;stroke-width:12.5;stroke-linejoin:round;stroke-miterlimit:4;stroke-dasharray:none;stroke-opacity:1"
         id="path4647"
         d="m 712.35879,177.74849 -5.86964,0 0,-51.01316 c 0,-0.34625 -0.11541,-0.89034 -0.36273,-1.59932 -0.47815,-1.36848 -1.33551,-2.40722 -2.58859,-3.11619 -1.00575,-0.54409 -2.22585,-0.8079 -3.64379,-0.8079 -0.0659,0 -0.18137,0.033 -0.36273,0.0824 -0.18137,0.066 -0.29678,0.0989 -0.36274,0.0989 -0.34623,0 -0.89033,0.21434 -1.59931,0.62653 -1.18712,0.64302 -2.028,1.59931 -2.50614,2.85239 -0.34624,0.77492 -0.52761,1.40146 -0.52761,1.86312 l 0,51.01316 -5.86965,0 0,-51.01316 c 0,-0.0495 -0.033,-0.31327 -0.0989,-0.79142 -0.18137,-0.72546 -0.51113,-1.43444 -0.98927,-2.14341 -1.0717,-1.4839 -2.4237,-2.35775 -4.10545,-2.58858 0.18136,0 -0.23083,0 -1.23659,0 -0.0659,0 -0.18136,0 -0.36273,0 -0.18136,0 -0.29678,0 -0.34624,0 -0.29677,0 -0.84088,0.21435 -1.6158,0.62654 -1.73121,0.89034 -2.70399,2.2918 -2.95131,4.20438 -0.0495,0.0659 -0.0824,0.14839 -0.0824,0.2638 l 0,51.44185 -6.06749,0 0,-51.17804 c 0,-1.18712 0.2638,-2.44019 0.79141,-3.74273 0.24731,-0.54409 0.57707,-1.15414 0.98926,-1.8796 0.82439,-1.48391 2.09395,-2.75346 3.79219,-3.79219 1.68176,-1.03873 3.46243,-1.61581 5.30907,-1.73122 0.46166,-0.0659 1.12117,-0.0989 1.96204,-0.0824 0.0494,-0.0165 0.19786,0.0165 0.44517,0.0824 0.23083,0.0494 0.37922,0.0824 0.44517,0.0824 0.52761,0 1.53336,0.29678 3.03375,0.89033 0.23083,0.0659 0.49463,0.18137 0.79141,0.36273 1.02225,0.59357 2.09395,1.48391 3.21512,2.67103 0.95629,-1.00576 1.78068,-1.74771 2.50614,-2.22586 1.8961,-1.25306 4.36926,-1.8796 7.38652,-1.86311 0.0659,-0.0165 0.21435,0.0165 0.44517,0.0824 0.24731,0.0494 0.39571,0.0824 0.46166,0.0824 0.52761,0 1.4839,0.26381 2.85239,0.80791 3.14916,1.25306 5.2596,3.41297 6.3313,6.51266 0.52761,1.59932 0.79141,2.85238 0.79141,3.74273 l 0,51.17804 0,0 0,0 z" />
      <polygon
         style="display:inline;fill:#ffffff;fill-opacity:1;fill-rule:evenodd;stroke:#ffffff;stroke-width:6.06510067;stroke-linejoin:round;stroke-miterlimit:4;stroke-dasharray:none;stroke-opacity:1"
         id="polygon4649"
         transform="matrix(2.0609715,0,0,2.0609715,453.15454,93.331098)"
         points="131.432,23.656 131.432,40.96 128.488,40.96 128.488,23.656 128.488,23.656 " />
      <path
         inkscape:connector-curvature="0"
         style="display:inline;fill:#ffffff;fill-opacity:1;fill-rule:evenodd;stroke:#ffffff;stroke-width:12.5;stroke-linejoin:round;stroke-miterlimit:4;stroke-dasharray:none;stroke-opacity:1"
         id="path4651"
         d="m 753.18252,177.74849 -5.86965,0 0,-24.17107 c 0,-0.11542 -0.0351,-0.41219 -0.0989,-0.89034 -0.47814,-2.25883 -1.86312,-3.70975 -4.18789,-4.36927 -0.36273,-0.11541 -1.07377,-0.18136 -2.14341,-0.18136 -0.0659,0 -0.19785,0.033 -0.39571,0.0989 -0.21434,0.0659 -0.3112,0.0824 -0.3112,0.0824 -0.29885,0 -0.87591,0.21434 -1.69825,0.62654 -1.6158,0.77492 -2.5556,2.14341 -2.85238,4.10545 -0.0659,0.0659 -0.10099,0.14839 -0.10099,0.2638 l 0,24.43488 -6.06543,0 0,-35.66305 6.06543,0 c -0.0474,0.54616 -0.0474,1.00576 0,1.41795 2.04448,-0.9398 4.22293,-1.41795 6.54771,-1.41795 0.0639,0 0.22877,0.0351 0.5441,0.10099 0.29883,0.0474 0.47814,0.0804 0.52761,0.0804 1.25306,0 2.78849,0.56057 4.56711,1.69823 1.50245,0.8924 2.70605,2.07746 3.59434,3.56342 1.25306,1.96205 1.8796,3.87462 1.8796,5.70477 l 0,24.51525 -0.002,0 z" />
      <path
         inkscape:connector-curvature="0"
         style="display:inline;fill:#ffffff;fill-opacity:1;fill-rule:evenodd;stroke:#ffffff;stroke-width:12.5;stroke-linejoin:round;stroke-miterlimit:4;stroke-dasharray:none;stroke-opacity:1"
         id="path4653"
         d="m 770.84092,148.13645 -5.88613,0 0,18.38387 c 0.0659,0.16487 0.1319,0.44516 0.18136,0.79141 0.42869,1.91259 1.58489,3.21718 3.47893,3.92409 0.41219,0.11541 0.64301,0.18136 0.70897,0.18136 0.0659,0 0.0824,0.033 0.0824,0.0824 0,0 0.033,0 0.0989,0 0.0659,0 0.18137,0.033 0.36273,0.0989 0.16489,0.0659 0.29885,0.0824 0.34625,0.0824 0.0659,0 0.16487,0 0.31326,0 0.14839,0 0.24732,0 0.31327,0 l 0,6.0675 c -2.44225,-0.11747 -4.61657,-0.74195 -6.51267,-1.86311 -1.43443,-0.84088 -2.62156,-2.028 -3.56341,-3.57785 -1.25102,-2.0115 -1.87755,-3.99004 -1.87755,-5.88407 l 0,-42.17779 6.06543,0 0,17.74085 5.88614,0 0,6.14994 0.002,0 0,0 z" />
      <path
         inkscape:connector-curvature="0"
         style="display:inline;fill:#ffffff;fill-opacity:1;fill-rule:evenodd;stroke:#ffffff;stroke-width:12.5;stroke-linejoin:round;stroke-miterlimit:4;stroke-dasharray:none;stroke-opacity:1"
         id="path4655"
         d="m 720.44351,139.99996 c -1.29846,0 -2.47409,-1.00016 -2.47409,-2.35126 l 0,-0.57905 0,0 0,-7.12399 -0.71942,0 0,-2.42147 3.77256,0.0176 0.5615,0 c 1.316,0 2.47409,0.98262 2.47409,2.33372 l 0,10.12449 -3.61464,0 0,0 0,0 z" />
    </g>
    <rect
       y="17.339359"
       x="177.87746"
       height="52.469975"
       width="4.6655378"
       id="rect4657"
       style="fill:#ffffff;fill-opacity:1;stroke:none;stroke-width:12.5;stroke-linecap:round;stroke-linejoin:round;stroke-miterlimit:4;stroke-dasharray:none;stroke-opacity:1" />
    <rect
       y="43.666668"
       x="209.33333"
       height="26"
       width="5"
       id="rect3392"
       style="fill:#ffffff;fill-opacity:1;stroke:none;stroke-width:12.5;stroke-linecap:round;stroke-linejoin:round;stroke-miterlimit:4;stroke-dasharray:none;stroke-opacity:1" />
  </g>
  <g
     id="g4670"
     transform="matrix(0.77169226,0,0,1.0112232,-360.3779,-109.06354)">
    <g
       style="fill:#ffffff;fill-opacity:1;stroke:#ffffff;stroke-width:12.5;stroke-linejoin:round;stroke-miterlimit:4;stroke-dasharray:none;stroke-opacity:1"
       id="g4631">
      <polygon
         points="64.168,23.48 66.376,23.48 66.376,40.96 64.168,40.96 64.168,23.48 "
         transform="matrix(2.0609715,0,0,2.0609715,450.15454,93.331097)"
         id="polygon4633"
         style="display:inline;fill:#ffffff;fill-opacity:1;fill-rule:evenodd;stroke:#ffffff;stroke-width:6.06510067;stroke-linejoin:round;stroke-miterlimit:4;stroke-dasharray:none;stroke-opacity:1" />
      <path
         d="m 610.90456,177.74849 -4.55062,0 0,-27.25429 c 0,-1.23658 -0.44517,-2.30829 -1.33552,-3.19863 -0.89033,-0.89034 -1.96204,-1.33344 -3.19862,-1.33344 -1.25308,0 -2.32478,0.44516 -3.21512,1.33344 -0.89034,0.89034 -1.33551,1.96205 -1.33551,3.19863 l 0,27.25429 -4.53414,0 0,-27.25429 c 0,-2.48965 0.87386,-4.63307 2.65453,-6.41167 1.78068,-1.78069 3.9241,-2.67309 6.43024,-2.67309 2.48965,0 4.63306,0.8924 6.41374,2.67309 1.78067,1.7786 2.67102,3.92202 2.67102,6.41167 l 0,27.25429 0,0 z"
         id="path4635"
         style="display:inline;fill:#ffffff;fill-opacity:1;fill-rule:evenodd;stroke:#ffffff;stroke-width:12.5;stroke-linejoin:round;stroke-miterlimit:4;stroke-dasharray:none;stroke-opacity:1"
         inkscape:connector-curvature="0" />
      <path
         d="m 633.97053,168.66166 c 0,2.50614 -0.89034,4.63307 -2.65454,6.41375 -1.78067,1.77862 -3.92409,2.67101 -6.43022,2.67101 -2.48966,0 -4.63307,-0.89239 -6.41375,-2.67101 -1.78068,-1.78068 -2.67102,-3.90761 -2.67102,-6.41375 l 0,-27.25222 4.55062,0 0,27.25429 c 0,1.25307 0.44517,2.30828 1.33551,3.19862 0.89034,0.8924 1.96205,1.33552 3.19864,1.33552 1.25306,0 2.32477,-0.44518 3.21511,-1.33552 0.89033,-0.89034 1.3355,-1.94349 1.3355,-3.19862 l 0,-27.25429 4.53415,0 0,27.25222 0,0 z"
         id="path4637"
         style="display:inline;fill:#ffffff;fill-opacity:1;fill-rule:evenodd;stroke:#ffffff;stroke-width:12.5;stroke-linejoin:round;stroke-miterlimit:4;stroke-dasharray:none;stroke-opacity:1"
         inkscape:connector-curvature="0" />
      <polygon
         points="92.056,40.96 89.624,40.96 92.824,32.144 89.624,23.328 92.056,23.328 94.04,28.8 96.024,23.328 98.448,23.328 95.248,32.144 98.448,40.96 98.448,40.96 96.024,40.96 94.04,35.488 "
         transform="matrix(2.0609715,0,0,2.0609715,452.15454,93.331097)"
         id="polygon4639"
         style="display:inline;fill:#ffffff;fill-opacity:1;fill-rule:evenodd;stroke:#ffffff;stroke-width:6.06510067;stroke-linejoin:round;stroke-miterlimit:4;stroke-dasharray:none;stroke-opacity:1" />
      <path
         d="m 584.78863,138.68896 c -1.22009,0 -2.30828,-0.93981 -2.30828,-2.20936 l 0,-0.5441 0,0 0,-6.69404 -0.69249,0 0,-2.27531 2.31334,0.0165 0.52761,0 c 1.22009,0 2.30828,0.92332 2.30828,2.19288 l 0,9.51345 -2.14846,0 0,0 0,0 z"
         id="path4641"
         style="display:inline;fill:#ffffff;fill-opacity:1;fill-rule:evenodd;stroke:#ffffff;stroke-width:12.5;stroke-linejoin:round;stroke-miterlimit:4;stroke-dasharray:none;stroke-opacity:1"
         inkscape:connector-curvature="0" />
      <path
         d="m 563.94757,115.26019 0,53.28693 c 0,2.50614 0.8783,4.63847 2.65898,6.41915 1.67255,1.67062 3.67681,2.5572 5.98941,2.65897 l 0,0.0268 0.45659,0 4.61963,0 0,-4.56592 -4.61963,0 c -1.48379,0 -2.33266,-0.42148 -3.223,-1.26234 -0.89033,-0.82233 -1.34292,-1.81064 -1.34292,-2.98128 l 0,-53.58237 -4.53906,0 z"
         id="path4643"
         style="display:inline;fill:#ffffff;fill-opacity:1;fill-rule:evenodd;stroke:#ffffff;stroke-width:12.5;stroke-linejoin:round;stroke-miterlimit:4;stroke-dasharray:none;stroke-opacity:1"
         inkscape:connector-curvature="0" />
    </g>
    <rect
       y="126.25"
       x="573.25"
       height="41.5"
       width="4"
       id="rect4668"
       style="fill:#ffffff;fill-opacity:1;stroke:none;stroke-width:12.5;stroke-linecap:round;stroke-linejoin:round;stroke-miterlimit:4;stroke-dasharray:none;stroke-opacity:1" />
  </g>
  <g
     id="g4623"
     transform="matrix(0.77169226,0,0,1.0112232,-360.3779,-109.06354)">
    <polygon
       points="64.168,23.48 66.376,23.48 66.376,40.96 64.168,40.96 64.168,23.48 "
       transform="matrix(2.0609715,0,0,2.0609715,450.15454,93.331097)"
       id="polygon2586"
       style="display:inline;fill:#808080;fill-opacity:1;fill-rule:evenodd;stroke:#78c02f;stroke-width:0;stroke-miterlimit:4;stroke-dasharray:none;stroke-opacity:1" />
    <path
       d="m 610.90456,177.74849 -4.55062,0 0,-27.25429 c 0,-1.23658 -0.44517,-2.30829 -1.33552,-3.19863 -0.89033,-0.89034 -1.96204,-1.33344 -3.19862,-1.33344 -1.25308,0 -2.32478,0.44516 -3.21512,1.33344 -0.89034,0.89034 -1.33551,1.96205 -1.33551,3.19863 l 0,27.25429 -4.53414,0 0,-27.25429 c 0,-2.48965 0.87386,-4.63307 2.65453,-6.41167 1.78068,-1.78069 3.9241,-2.67309 6.43024,-2.67309 2.48965,0 4.63306,0.8924 6.41374,2.67309 1.78067,1.7786 2.67102,3.92202 2.67102,6.41167 l 0,27.25429 0,0 z"
       id="path2588"
       style="display:inline;fill:#808080;fill-opacity:1;fill-rule:evenodd;stroke:#78c02f;stroke-width:0;stroke-miterlimit:4;stroke-dasharray:none;stroke-opacity:1"
       inkscape:connector-curvature="0" />
    <path
       d="m 633.97053,168.66166 c 0,2.50614 -0.89034,4.63307 -2.65454,6.41375 -1.78067,1.77862 -3.92409,2.67101 -6.43022,2.67101 -2.48966,0 -4.63307,-0.89239 -6.41375,-2.67101 -1.78068,-1.78068 -2.67102,-3.90761 -2.67102,-6.41375 l 0,-27.25222 4.55062,0 0,27.25429 c 0,1.25307 0.44517,2.30828 1.33551,3.19862 0.89034,0.8924 1.96205,1.33552 3.19864,1.33552 1.25306,0 2.32477,-0.44518 3.21511,-1.33552 0.89033,-0.89034 1.3355,-1.94349 1.3355,-3.19862 l 0,-27.25429 4.53415,0 0,27.25222 0,0 z"
       id="path2590"
       style="display:inline;fill:#808080;fill-opacity:1;fill-rule:evenodd;stroke:#78c02f;stroke-width:0;stroke-miterlimit:4;stroke-dasharray:none;stroke-opacity:1"
       inkscape:connector-curvature="0" />
    <polygon
       points="92.056,40.96 89.624,40.96 92.824,32.144 89.624,23.328 92.056,23.328 94.04,28.8 96.024,23.328 98.448,23.328 95.248,32.144 98.448,40.96 98.448,40.96 96.024,40.96 94.04,35.488 "
       transform="matrix(2.0609715,0,0,2.0609715,452.15454,93.331097)"
       id="polygon2592"
       style="display:inline;fill:#808080;fill-opacity:1;fill-rule:evenodd;stroke:#78c02f;stroke-width:0;stroke-miterlimit:4;stroke-dasharray:none;stroke-opacity:1" />
    <path
       d="m 584.78863,138.68896 c -1.22009,0 -2.30828,-0.93981 -2.30828,-2.20936 l 0,-0.5441 0,0 0,-6.69404 -0.69249,0 0,-2.27531 2.31334,0.0165 0.52761,0 c 1.22009,0 2.30828,0.92332 2.30828,2.19288 l 0,9.51345 -2.14846,0 0,0 0,0 z"
       id="path2602"
       style="display:inline;fill:#808080;fill-opacity:1;fill-rule:evenodd;stroke:#78c02f;stroke-width:0;stroke-miterlimit:4;stroke-dasharray:none;stroke-opacity:1"
       inkscape:connector-curvature="0" />
    <path
       d="m 563.94757,115.26019 0,53.28693 c 0,2.50614 0.8783,4.63847 2.65898,6.41915 1.67255,1.67062 3.67681,2.5572 5.98941,2.65897 l 0,0.0268 0.45659,0 4.61963,0 0,-4.56592 -4.61963,0 c -1.48379,0 -2.33266,-0.42148 -3.223,-1.26234 -0.89033,-0.82233 -1.34292,-1.81064 -1.34292,-2.98128 l 0,-53.58237 -4.53906,0 z"
       id="polygon3803"
       style="display:inline;fill:#808080;fill-opacity:1;fill-rule:evenodd;stroke:#78c02f;stroke-width:0;stroke-miterlimit:4;stroke-dasharray:none;stroke-opacity:1"
       inkscape:connector-curvature="0" />
  </g>
  <g
     id="g4587"
     style="fill:#78c02f;fill-opacity:1;stroke:none"
     transform="matrix(0.77169226,0,0,1.0112232,-360.3779,-109.06354)">
    <path
       inkscape:connector-curvature="0"
       style="display:inline;fill:#78c02f;fill-opacity:1;fill-rule:evenodd;stroke:none"
       id="path2594"
       d="m 712.35879,177.74849 -5.86964,0 0,-51.01316 c 0,-0.34625 -0.11541,-0.89034 -0.36273,-1.59932 -0.47815,-1.36848 -1.33551,-2.40722 -2.58859,-3.11619 -1.00575,-0.54409 -2.22585,-0.8079 -3.64379,-0.8079 -0.0659,0 -0.18137,0.033 -0.36273,0.0824 -0.18137,0.066 -0.29678,0.0989 -0.36274,0.0989 -0.34623,0 -0.89033,0.21434 -1.59931,0.62653 -1.18712,0.64302 -2.028,1.59931 -2.50614,2.85239 -0.34624,0.77492 -0.52761,1.40146 -0.52761,1.86312 l 0,51.01316 -5.86965,0 0,-51.01316 c 0,-0.0495 -0.033,-0.31327 -0.0989,-0.79142 -0.18137,-0.72546 -0.51113,-1.43444 -0.98927,-2.14341 -1.0717,-1.4839 -2.4237,-2.35775 -4.10545,-2.58858 0.18136,0 -0.23083,0 -1.23659,0 -0.0659,0 -0.18136,0 -0.36273,0 -0.18136,0 -0.29678,0 -0.34624,0 -0.29677,0 -0.84088,0.21435 -1.6158,0.62654 -1.73121,0.89034 -2.70399,2.2918 -2.95131,4.20438 -0.0495,0.0659 -0.0824,0.14839 -0.0824,0.2638 l 0,51.44185 -6.06749,0 0,-51.17804 c 0,-1.18712 0.2638,-2.44019 0.79141,-3.74273 0.24731,-0.54409 0.57707,-1.15414 0.98926,-1.8796 0.82439,-1.48391 2.09395,-2.75346 3.79219,-3.79219 1.68176,-1.03873 3.46243,-1.61581 5.30907,-1.73122 0.46166,-0.0659 1.12117,-0.0989 1.96204,-0.0824 0.0494,-0.0165 0.19786,0.0165 0.44517,0.0824 0.23083,0.0494 0.37922,0.0824 0.44517,0.0824 0.52761,0 1.53336,0.29678 3.03375,0.89033 0.23083,0.0659 0.49463,0.18137 0.79141,0.36273 1.02225,0.59357 2.09395,1.48391 3.21512,2.67103 0.95629,-1.00576 1.78068,-1.74771 2.50614,-2.22586 1.8961,-1.25306 4.36926,-1.8796 7.38652,-1.86311 0.0659,-0.0165 0.21435,0.0165 0.44517,0.0824 0.24731,0.0494 0.39571,0.0824 0.46166,0.0824 0.52761,0 1.4839,0.26381 2.85239,0.80791 3.14916,1.25306 5.2596,3.41297 6.3313,6.51266 0.52761,1.59932 0.79141,2.85238 0.79141,3.74273 l 0,51.17804 0,0 0,0 z" />
    <polygon
       style="display:inline;fill:#78c02f;fill-opacity:1;fill-rule:evenodd;stroke:none"
       id="polygon2596"
       transform="matrix(2.0609715,0,0,2.0609715,453.15454,93.331098)"
       points="128.488,23.656 128.488,23.656 131.432,23.656 131.432,40.96 128.488,40.96 " />
    <path
       inkscape:connector-curvature="0"
       style="display:inline;fill:#78c02f;fill-opacity:1;fill-rule:evenodd;stroke:none"
       id="path2598"
       d="m 753.18252,177.74849 -5.86965,0 0,-24.17107 c 0,-0.11542 -0.0351,-0.41219 -0.0989,-0.89034 -0.47814,-2.25883 -1.86312,-3.70975 -4.18789,-4.36927 -0.36273,-0.11541 -1.07377,-0.18136 -2.14341,-0.18136 -0.0659,0 -0.19785,0.033 -0.39571,0.0989 -0.21434,0.0659 -0.3112,0.0824 -0.3112,0.0824 -0.29885,0 -0.87591,0.21434 -1.69825,0.62654 -1.6158,0.77492 -2.5556,2.14341 -2.85238,4.10545 -0.0659,0.0659 -0.10099,0.14839 -0.10099,0.2638 l 0,24.43488 -6.06543,0 0,-35.66305 6.06543,0 c -0.0474,0.54616 -0.0474,1.00576 0,1.41795 2.04448,-0.9398 4.22293,-1.41795 6.54771,-1.41795 0.0639,0 0.22877,0.0351 0.5441,0.10099 0.29883,0.0474 0.47814,0.0804 0.52761,0.0804 1.25306,0 2.78849,0.56057 4.56711,1.69823 1.50245,0.8924 2.70605,2.07746 3.59434,3.56342 1.25306,1.96205 1.8796,3.87462 1.8796,5.70477 l 0,24.51525 -0.002,0 z" />
    <path
       inkscape:connector-curvature="0"
       style="display:inline;fill:#78c02f;fill-opacity:1;fill-rule:evenodd;stroke:none"
       id="path2600"
       d="m 770.84092,148.13645 -5.88613,0 0,18.38387 c 0.0659,0.16487 0.1319,0.44516 0.18136,0.79141 0.42869,1.91259 1.58489,3.21718 3.47893,3.92409 0.41219,0.11541 0.64301,0.18136 0.70897,0.18136 0.0659,0 0.0824,0.033 0.0824,0.0824 0,0 0.033,0 0.0989,0 0.0659,0 0.18137,0.033 0.36273,0.0989 0.16489,0.0659 0.29885,0.0824 0.34625,0.0824 0.0659,0 0.16487,0 0.31326,0 0.14839,0 0.24732,0 0.31327,0 l 0,6.0675 c -2.44225,-0.11747 -4.61657,-0.74195 -6.51267,-1.86311 -1.43443,-0.84088 -2.62156,-2.028 -3.56341,-3.57785 -1.25102,-2.0115 -1.87755,-3.99004 -1.87755,-5.88407 l 0,-42.17779 6.06543,0 0,17.74085 5.88614,0 0,6.14994 0.002,0 0,0 z" />
    <path
       inkscape:connector-curvature="0"
       style="display:inline;fill:#78c02f;fill-opacity:1;fill-rule:evenodd;stroke:none"
       id="path2604"
       d="m 720.44351,139.99996 c -1.29846,0 -2.47409,-1.00016 -2.47409,-2.35126 l 0,-0.57905 0,0 0,-7.12399 -0.71942,0 0,-2.42147 3.77256,0.0176 0.5615,0 c 1.316,0 2.47409,0.98262 2.47409,2.33372 l 0,10.12449 -3.61464,0 0,0 0,0 z" />
  </g>
  <g
     inkscape:groupmode="layer"
     id="layer1"
     inkscape:label="Background"
     style="display:inline">
    <path
       style="display:inline;overflow:visible;visibility:visible;fill:#ffffff;fill-opacity:1;fill-rule:evenodd;stroke:#ffffff;stroke-width:12.5;stroke-linejoin:round;stroke-miterlimit:4;stroke-dasharray:none;stroke-opacity:1;marker:none;enable-background:accumulate"
       d="m 32.907279,70.679863 c -10.05209,0 -18.775342,-9.985794 -18.775342,-23.146218 l -0.009,-15.979592 0,-4.074786 -6.372937,0 0,-20.3032771 26.874835,0.1658491 8.406871,0.023697 c 10.061123,0 18.775338,9.973908 18.775338,23.146147 l 0,40.168173 -28.899733,0 0,0 0,0 z"
       id="path4248"
       inkscape:connector-curvature="0" />
  </g>
  <g
     inkscape:groupmode="layer"
     id="layer2"
     inkscape:label="Top"
     style="display:inline">
    <g
       id="g4238"
       transform="matrix(0.77169226,0,0,1.0112232,1.3835201,-0.86418197)">
      <path
         inkscape:connector-curvature="0"
         style="display:inline;overflow:visible;visibility:visible;fill:#78c02f;fill-opacity:1;fill-rule:evenodd;stroke:none;stroke-width:1;marker:none;enable-background:accumulate"
         id="path4130"
         d="m 47.344604,23.944051 c -2.461283,0 -4.648207,0.913794 -6.405358,2.688818 -1.756278,1.774075 -2.678429,3.988874 -2.678424,6.488348 l 0,12.634294 5.730572,0 0,-12.634294 c 0,-0.95801 0.312593,-1.707105 0.996611,-2.398074 0.686272,-0.693179 1.41299,-1.006983 2.356599,-1.006983 0.963383,0 1.679199,0.312227 2.366968,1.006983 0.684026,0.690969 0.996623,1.440064 0.996623,2.398074 l 0,12.634294 5.730566,0 0,-12.634294 c 0,-0.95801 0.3126,-1.707105 0.996631,-2.398074 0.687764,-0.694756 1.403579,-1.006983 2.36698,-1.006983 0.943614,0 1.670314,0.313804 2.356574,1.006983 0.684023,0.690969 0.996623,1.440064 0.996623,2.398074 l 0.03114,14.762537 c 0,3.149126 -2.998964,5.803196 -6.851767,5.803196 L 37.855944,53.6143 c -2.973204,0 -5.512563,-2.893955 -5.512563,-6.613005 l 0,-27.799945 -5.419119,0 0,28.869219 c 0,3.063016 1.120834,5.749054 3.301309,7.921094 1.863703,1.839585 4.10506,3.032042 6.623367,3.301361 l 20.576061,-5e-5 c 3.161815,0 5.939617,-1.175657 8.180592,-3.45711 l 0.0104,0 c 1.905928,-1.958176 3.02014,-4.304509 3.290919,-6.945126 L 68.88616,33.12122 c 0,-2.499474 -0.922121,-4.714273 -2.678421,-6.488348 -1.757136,-1.775024 -3.944078,-2.688818 -6.405348,-2.688818 -2.415946,0 -4.529902,0.898381 -6.239271,2.543446 -1.704369,-1.642354 -3.803549,-2.543446 -6.218498,-2.543446 z" />
      <path
         inkscape:connector-curvature="0"
         style="display:inline;overflow:visible;visibility:visible;fill:#78c02f;fill-opacity:1;fill-rule:evenodd;stroke:none;stroke-width:1;marker:none;enable-background:accumulate"
         id="path6141"
         d="m 40.850168,70.75 c -13.026034,0 -24.33009,-9.874965 -24.33009,-22.889325 l -0.01169,-15.80224 0,-4.029561 -8.258392,0 0,-20.0779374 34.825844,0.1640084 10.894072,0.023434 c 13.03774,0 24.330085,9.86321 24.330085,22.889255 l 0,39.722359 -37.449816,0 0,0 0,0 z M 72.993491,60.094487 c 0,-8.653434 0,-29.066848 0,-29.066848 0,-9.710886 -8.516084,-17.582763 -19.023592,-17.582763 l -10.905776,0 0,-0.02344 -29.495958,-0.128882 0,9.429822 c 0,0 1.184702,0 3.304134,0 2.243231,0 4.942523,2.108058 4.942523,5.201563 l 0.02343,19.925107 c 0,9.710893 8.516128,17.582758 19.011907,17.582758 l 25.914044,0 c 3.322193,0 6.229279,-2.103921 6.229279,-5.337322 z" />
    </g>
  </g>
</svg>
