<?xml version="1.0" encoding="UTF-8" standalone="no"?>
<!-- Created with Inkscape (http://www.inkscape.org/) -->

<svg
   xmlns:dc="http://purl.org/dc/elements/1.1/"
   xmlns:cc="http://creativecommons.org/ns#"
   xmlns:rdf="http://www.w3.org/1999/02/22-rdf-syntax-ns#"
   xmlns:svg="http://www.w3.org/2000/svg"
   xmlns="http://www.w3.org/2000/svg"
   xmlns:xlink="http://www.w3.org/1999/xlink"
   xmlns:sodipodi="http://sodipodi.sourceforge.net/DTD/sodipodi-0.dtd"
   xmlns:inkscape="http://www.inkscape.org/namespaces/inkscape"
   version="1.0"
   width="968"
   height="291"
   id="svg2619"
   inkscape:version="0.91 r13725"
   sodipodi:docname="LinuxMint_Logo-flat-03.svg"
   inkscape:export-filename="/home/sebastien/Sources/grub-themes/Grub2-theme-Sunshine-LinuxMint-master/Sunshine-LinuxMint/LinuxMint_Logo-flat-03.png"
   inkscape:export-xdpi="23.5"
   inkscape:export-ydpi="23.5">
  <metadata
     id="metadata71">
    <rdf:RDF>
      <cc:Work
         rdf:about="">
        <dc:format>image/svg+xml</dc:format>
        <dc:type
           rdf:resource="http://purl.org/dc/dcmitype/StillImage" />
        <dc:title>Linux Mint Official Logo</dc:title>
      </cc:Work>
    </rdf:RDF>
  </metadata>
  <sodipodi:namedview
     pagecolor="#5b8bed"
     bordercolor="#666666"
     borderopacity="1"
     objecttolerance="10"
     gridtolerance="10"
     guidetolerance="10"
     inkscape:pageopacity="0"
     inkscape:pageshadow="2"
     inkscape:window-width="1024"
     inkscape:window-height="550"
     id="namedview69"
     showgrid="false"
     inkscape:zoom="0.5"
     inkscape:cx="187.33617"
     inkscape:cy="134.73478"
     inkscape:window-x="0"
     inkscape:window-y="0"
     inkscape:window-maximized="1"
     inkscape:current-layer="svg2619"
     showguides="false"
     inkscape:guide-bbox="true"
     fit-margin-top="2"
     fit-margin-left="2"
     fit-margin-right="2"
     fit-margin-bottom="2"
     showborder="true"
     inkscape:showpageshadow="false">
    <sodipodi:guide
       position="-131.62768,15.473934"
       orientation="0,1"
       id="guide4405" />
  </sodipodi:namedview>
  <title
     id="title3079">Linux Mint Official Logo</title>
  <defs
     id="defs2621">
    <linearGradient
       id="linearGradient3431">
      <stop
         id="stop3433"
         style="stop-color:#3d3d3d;stop-opacity:1"
         offset="0" />
      <stop
         id="stop3435"
         style="stop-color:#000000;stop-opacity:0.11400651"
         offset="1" />
    </linearGradient>
    <linearGradient
       id="linearGradient3312">
      <stop
         id="stop3314"
         style="stop-color:#c7f994;stop-opacity:1"
         offset="0" />
      <stop
         id="stop3316"
         style="stop-color:#87cf3e;stop-opacity:1"
         offset="1" />
    </linearGradient>
    <filter
       id="filter3291"
       style="color-interpolation-filters:sRGB">
      <feGaussianBlur
         id="feGaussianBlur3293"
         stdDeviation="0.400625" />
    </filter>
    <filter
       id="filter3546"
       style="color-interpolation-filters:sRGB">
      <feGaussianBlur
         id="feGaussianBlur3548"
         stdDeviation="0.15992437" />
    </filter>
    <linearGradient
       x1="70.491508"
       y1="416.38858"
       x2="113.64215"
       y2="375.87961"
       id="linearGradient4136"
       xlink:href="#linearGradient3431"
       gradientUnits="userSpaceOnUse"
       gradientTransform="translate(0,80)"
       spreadMethod="pad" />
    <filter
       id="filter3469"
       style="color-interpolation-filters:sRGB">
      <feGaussianBlur
         id="feGaussianBlur3471"
         stdDeviation="2.7119931" />
    </filter>
    <linearGradient
       x1="61.42857"
       y1="362.14285"
       x2="116.42857"
       y2="408.57144"
       id="linearGradient3538"
       xlink:href="#linearGradient3312"
       gradientUnits="userSpaceOnUse"
       gradientTransform="matrix(2.684162,0,0,2.684162,-89.865856,-904.32339)" />
    <filter
       id="filter3573"
       style="color-interpolation-filters:sRGB">
      <feGaussianBlur
         id="feGaussianBlur3575"
         stdDeviation="1.6284922" />
    </filter>
    <filter
       id="filter3965"
       style="color-interpolation-filters:sRGB">
      <feGaussianBlur
         id="feGaussianBlur3967"
         stdDeviation="2.4743396" />
    </filter>
    <filter
       id="filter4006"
       style="color-interpolation-filters:sRGB">
      <feGaussianBlur
         id="feGaussianBlur4008"
         stdDeviation="1.6495597" />
    </filter>
    <filter
       id="filter4135"
       style="color-interpolation-filters:sRGB">
      <feGaussianBlur
         id="feGaussianBlur4137"
         stdDeviation="0.74662361" />
    </filter>
  </defs>
  <g
     id="g4279"
     transform="translate(1,0)">
    <path
       d="m 119.29129,276.52599 c -42.470744,0 -79.327087,-41.40344 -79.327087,-95.96965 l -0.0381,-56.41636 0,-16.89505 -26.926103,0 0,-94.02091 113.54798,0.687649 35.51957,0.09825 c 42.50893,0 79.32707,41.354161 79.32707,95.969401 l 0,166.54665 -122.10329,0 0,0 0,0 z"
       id="path4403"
       style="display:inline;overflow:visible;visibility:visible;opacity:1;fill:#ffffff;fill-opacity:1;fill-rule:evenodd;stroke:#ffffff;stroke-width:22;stroke-linejoin:round;stroke-miterlimit:4;stroke-dasharray:none;stroke-opacity:1;marker:none;enable-background:accumulate"
       inkscape:connector-curvature="0" />
    <path
       inkscape:connector-curvature="0"
       style="display:inline;overflow:visible;visibility:visible;opacity:1;fill:#78c02f;fill-opacity:1;fill-rule:evenodd;stroke:none;stroke-width:0;stroke-miterlimit:4;stroke-dasharray:none;marker:none;enable-background:accumulate"
       id="path3543"
       d="m 119.29129,276.52599 c -42.470744,0 -79.327087,-41.40344 -79.327087,-95.96965 l -0.0381,-56.41636 0,-16.89505 -26.926103,0 0,-94.02091 113.54798,0.687649 35.51957,0.09825 c 42.50893,0 79.32707,41.354161 79.32707,95.969401 l 0,166.54665 -122.10329,0 0,0 0,0 z" />
    <path
       inkscape:connector-curvature="0"
       style="display:inline;fill:#ffffff;fill-opacity:1;fill-rule:evenodd"
       id="path2576"
       d="m 225.72444,233.26959 c 0,-36.20721 0,-121.61981 0,-121.61981 0,-40.631746 -27.70915,-73.568793 -61.89786,-73.568793 l -35.48458,0 0,-0.09814 -95.972272,-0.539262 0,44.375066 c 0,0 7.836244,0 14.732337,0 10.283505,0 12.100191,9.128789 12.100191,21.764089 l 0.07632,78.45009 c 0,40.63176 27.709272,73.56876 61.859814,73.56876 l 84.31765,0 c 10.80958,0 20.26846,-8.8031 20.26846,-22.3321 z" />
    <path
       inkscape:connector-curvature="0"
       style="display:inline;overflow:visible;visibility:visible;fill:#78c02f;fill-opacity:1;fill-rule:evenodd;stroke:none;stroke-width:4.7667098;marker:none;enable-background:accumulate"
       id="path2620"
       d="m 142.31158,83.670186 c -7.69457,0 -14.53143,3.673632 -20.02471,10.809547 -5.49054,7.132127 -8.37341,16.036017 -8.37339,26.084377 l 0,50.79218 17.91514,0 0,-50.79218 c 0,-3.8514 0.97725,-6.86288 3.11567,-9.6407 2.14543,-2.78672 4.41734,-4.04826 7.36729,-4.04826 3.01177,0 5.24958,1.25519 7.39971,4.04826 2.13844,2.77782 3.11568,5.7893 3.11568,9.6407 l 0,50.79218 17.91518,0 0,-50.79218 c 0,-3.8514 0.97724,-6.86288 3.11568,-9.6407 2.15012,-2.79307 4.38794,-4.04826 7.39975,-4.04826 2.94997,0 5.22181,1.26154 7.36725,4.04826 2.13841,2.77782 3.11568,5.7893 3.11568,9.6407 l 0.0975,59.3481 c 0,12.66007 -9.37549,23.32994 -21.42029,23.32994 l -57.76985,-0.29209 c -9.29496,0 -17.233617,-11.63423 -17.233617,-26.58549 l 0,-111.760929 -16.941477,0 0,116.059599 c 0,12.31389 3.503992,23.11227 10.320686,31.84424 5.826396,7.39549 12.833418,11.77164 20.706278,12.85435 l 0,0.41756 64.32575,0 c 9.8846,0 18.56871,-4.72637 25.57452,-13.89824 l 0.0325,0 c 5.9584,-7.87221 9.44168,-17.30492 10.28821,-27.92068 l -0.065,-63.39636 c 0,-10.04836 -2.8828,-18.95225 -8.37343,-26.084377 -5.49322,-7.135915 -12.33013,-10.809547 -20.02468,-10.809547 -7.55283,0 -14.16157,3.611659 -19.50546,10.225124 -5.32826,-6.602556 -11.89083,-10.225124 -19.44054,-10.225124 z" />
    <g
       style="fill:#ffffff;fill-opacity:1;stroke:#ffffff;stroke-width:17.02876091;stroke-linejoin:round;stroke-miterlimit:4;stroke-dasharray:none;stroke-opacity:1"
       id="g4275"
       transform="matrix(1.1392735,0,0,1.4650459,-146.14524,-69.954025)">
      <path
         inkscape:connector-curvature="0"
         style="display:inline;fill:#ffffff;fill-opacity:1;fill-rule:evenodd;stroke:#ffffff;stroke-width:17.02876091;stroke-linejoin:round;stroke-miterlimit:4;stroke-dasharray:none;stroke-opacity:1"
         id="path4277"
         d="m 820.96524,123.81757 c -3.49174,0 -6.65321,-2.68959 -6.65321,-6.32289 l 0,-1.55716 0,0 0,-19.157504 -1.93462,0 0,-6.511681 10.14499,0.04723 1.50995,0 c 3.53893,0 6.65321,2.642419 6.65321,6.275747 l 0,27.226288 -9.72032,0 0,0 0,0 z" />
      <path
         d="m 798.83501,236.49772 -16.7982,0 0,-145.993427 c 0,-0.99091 -0.33028,-2.548041 -1.03808,-4.577037 -1.3684,-3.916439 -3.82206,-6.88917 -7.40822,-8.918167 -2.87835,-1.55713 -6.3701,-2.312107 -10.42809,-2.312107 -0.18866,0 -0.51904,0.09445 -1.03809,0.235885 -0.51904,0.188904 -0.84935,0.283134 -1.03811,0.283134 -0.99088,0 -2.54802,0.613422 -4.57704,1.793064 -3.39737,1.84024 -5.80388,4.577037 -7.17225,8.163189 -0.99091,2.217729 -1.50995,4.010793 -1.50995,5.332014 l 0,145.993432 -16.79823,0 0,-145.993432 c 0,-0.141678 -0.0944,-0.896532 -0.28311,-2.26493 -0.51904,-2.076198 -1.46277,-4.105195 -2.83115,-6.134192 -3.06708,-4.246751 -6.93634,-6.74759 -11.74931,-7.408188 0.51904,0 -0.6606,0 -3.53895,0 -0.18866,0 -0.51905,0 -1.03809,0 -0.51904,0 -0.84935,0 -0.99091,0 -0.84933,0 -2.40649,0.613421 -4.62421,1.793063 -4.95453,2.548041 -7.7385,6.558858 -8.4463,12.032427 -0.14168,0.188658 -0.23589,0.424665 -0.23589,0.754977 l 0,147.220275 -17.36444,0 0,-146.465298 c 0,-3.397396 0.75498,-6.983523 2.26493,-10.71123 0.70778,-1.55713 1.65151,-3.303017 2.83115,-5.379191 2.35931,-4.24675 5.99262,-7.880055 10.85279,-10.852785 4.81297,-2.972705 9.90905,-4.624238 15.19389,-4.954525 1.32122,-0.188659 3.20866,-0.283111 5.61512,-0.235885 0.14143,-0.04723 0.56625,0.04723 1.27402,0.235885 0.6606,0.141432 1.08529,0.235884 1.27402,0.235884 1.50995,0 4.38831,0.849355 8.68223,2.54804 0.6606,0.188658 1.41558,0.519044 2.26493,1.038087 2.92553,1.69871 5.99262,4.24675 9.20128,7.644146 2.73677,-2.878352 5.09608,-5.001727 7.17225,-6.370126 5.4264,-3.586127 12.5043,-5.379191 21.13933,-5.332014 0.18866,-0.04723 0.61342,0.04723 1.27402,0.235884 0.70777,0.141432 1.13246,0.235884 1.3212,0.235884 1.50995,0 4.24675,0.754977 8.16319,2.312132 9.01252,3.586103 15.05233,9.767496 18.11941,18.638436 1.50996,4.577062 2.26491,8.163165 2.26491,10.71123 l 0,146.465296 0,0 0,0 z"
         id="path4279"
         style="display:inline;fill:#ffffff;fill-opacity:1;fill-rule:evenodd;stroke:#ffffff;stroke-width:17.02876091;stroke-linejoin:round;stroke-miterlimit:4;stroke-dasharray:none;stroke-opacity:1"
         inkscape:connector-curvature="0" />
      <polygon
         points="128.488,23.656 131.432,23.656 131.432,40.96 128.488,40.96 128.488,23.656 "
         transform="matrix(5.8982482,0,0,5.8982482,57.024177,-5.0945222)"
         id="polygon4281"
         style="display:inline;fill:#ffffff;fill-opacity:1;fill-rule:evenodd;stroke:#ffffff;stroke-width:2.88708806;stroke-linejoin:round;stroke-miterlimit:4;stroke-dasharray:none;stroke-opacity:1" />
      <path
         d="m 915.66753,236.49772 -16.79822,0 0,-69.17465 c 0,-0.33031 -0.10036,-1.17964 -0.28311,-2.54804 -1.36838,-6.46448 -5.33202,-10.61685 -11.98523,-12.5043 -1.03809,-0.33031 -3.07301,-0.51904 -6.13419,-0.51904 -0.18866,0 -0.56622,0.0944 -1.13247,0.28311 -0.61342,0.18866 -0.89062,0.23588 -0.89062,0.23588 -0.85526,0 -2.50675,0.61343 -4.86018,1.79309 -4.62421,2.21773 -7.31381,6.13417 -8.16316,11.74929 -0.18866,0.18866 -0.28901,0.42467 -0.28901,0.75498 l 0,69.92963 -17.35854,0 0,-102.06329 17.35854,0 c -0.13578,1.56303 -0.13578,2.87835 0,4.05799 5.85105,-2.68957 12.0855,-4.05799 18.73874,-4.05799 0.18275,0 0.65469,0.10035 1.55713,0.28903 0.85523,0.13578 1.3684,0.22999 1.50995,0.22999 3.58613,0 7.98034,1.6043 13.07052,4.86014 4.29983,2.55395 7.7444,5.94544 10.28656,10.19807 3.5861,5.61515 5.37919,11.08869 5.37919,16.32635 l 0,70.15966 -0.005,0 z"
         id="path4283"
         style="display:inline;fill:#ffffff;fill-opacity:1;fill-rule:evenodd;stroke:#ffffff;stroke-width:17.02876091;stroke-linejoin:round;stroke-miterlimit:4;stroke-dasharray:none;stroke-opacity:1"
         inkscape:connector-curvature="0" />
      <path
         d="m 966.20372,151.75169 -16.8454,0 0,52.61239 c 0.18866,0.47184 0.37749,1.274 0.51905,2.26491 1.22684,5.47359 4.53576,9.20718 9.95625,11.23027 1.17964,0.33029 1.84024,0.51904 2.029,0.51904 0.18865,0 0.23588,0.0944 0.23588,0.23589 0,0 0.0945,0 0.28311,0 0.18866,0 0.51907,0.0944 1.03811,0.28311 0.47187,0.18866 0.85526,0.23588 0.99091,0.23588 0.18866,0 0.47184,0 0.89651,0 0.42469,0 0.7078,0 0.89655,0 l 0,17.36444 c -6.98942,-0.33619 -13.21206,-2.12337 -18.63846,-5.33201 -4.10517,-2.40649 -7.50259,-5.80388 -10.19806,-10.23937 -3.58025,-5.75667 -5.37331,-11.419 -5.37331,-16.83949 l 0,-120.707658 17.35853,0 0,50.772128 16.8454,0 0,17.60037 0.005,0 0,0 z"
         id="path4285"
         style="display:inline;fill:#ffffff;fill-opacity:1;fill-rule:evenodd;stroke:#ffffff;stroke-width:17.02876091;stroke-linejoin:round;stroke-miterlimit:4;stroke-dasharray:none;stroke-opacity:1"
         inkscape:connector-curvature="0" />
    </g>
    <g
       id="g3461"
       style="fill:#808080;fill-opacity:1;stroke:#808080;stroke-width:6.92313766;stroke-linejoin:round;stroke-miterlimit:4;stroke-dasharray:none;stroke-opacity:1"
       transform="matrix(2.8022578,0,0,3.6035564,-798.75235,-1257.0852)">
      <polygon
         points="64.168,40.96 64.168,23.48 64.168,23.48 66.376,23.48 66.376,40.96 "
         transform="matrix(2.3979656,0,0,2.3979656,256.06967,327.36203)"
         id="polygon3463"
         style="display:inline;fill:#808080;fill-opacity:1;fill-rule:evenodd;stroke:#808080;stroke-width:2.88708806;stroke-linejoin:round;stroke-miterlimit:4;stroke-dasharray:none;stroke-opacity:1" />
      <path
         d="m 441.94078,425.5827 -5.29471,0 0,-31.7107 c 0,-1.43877 -0.51796,-2.68572 -1.55389,-3.72164 -1.03591,-1.03592 -2.28286,-1.55148 -3.72163,-1.55148 -1.45797,0 -2.70491,0.51795 -3.74083,1.55148 -1.03592,1.03592 -1.55389,2.28287 -1.55389,3.72164 l 0,31.7107 -5.27552,0 0,-31.7107 c 0,-2.89674 1.01674,-5.39063 3.08858,-7.46006 2.07184,-2.07185 4.56573,-3.11017 7.48166,-3.11017 2.89674,0 5.39062,1.03832 7.46246,3.11017 2.07184,2.06943 3.10777,4.56332 3.10777,7.46006 l 0,31.7107 0,0 z"
         id="path3465"
         style="display:inline;fill:#808080;fill-opacity:1;fill-rule:evenodd;stroke:#808080;stroke-width:6.92313766;stroke-linejoin:round;stroke-miterlimit:4;stroke-dasharray:none;stroke-opacity:1"
         inkscape:connector-curvature="0" />
      <path
         d="m 467.03309,415.01007 c 0,2.91592 -1.03592,5.39063 -3.08858,7.46247 -2.07184,2.06945 -4.56573,3.10776 -7.48165,3.10776 -2.89674,0 -5.39063,-1.03831 -7.46247,-3.10776 -2.07184,-2.07184 -3.10776,-4.54655 -3.10776,-7.46247 l 0,-31.7083 5.2947,0 0,31.7107 c 0,1.45796 0.51796,2.68572 1.55388,3.72164 1.03592,1.03832 2.28287,1.55389 3.72165,1.55389 1.45796,0 2.7049,-0.51797 3.74082,-1.55389 1.03592,-1.03592 1.55388,-2.26128 1.55388,-3.72164 l 0,-31.7107 5.27553,0 0,31.7083 0,0 z"
         id="path3467"
         style="display:inline;fill:#808080;fill-opacity:1;fill-rule:evenodd;stroke:#808080;stroke-width:6.92313766;stroke-linejoin:round;stroke-miterlimit:4;stroke-dasharray:none;stroke-opacity:1"
         inkscape:connector-curvature="0" />
      <polygon
         points="94.04,28.8 96.024,23.328 98.448,23.328 95.248,32.144 98.448,40.96 98.448,40.96 96.024,40.96 94.04,35.488 92.056,40.96 89.624,40.96 92.824,32.144 89.624,23.328 92.056,23.328 "
         transform="matrix(2.3979656,0,0,2.3979656,256.06967,327.36203)"
         id="polygon3469"
         style="display:inline;fill:#808080;fill-opacity:1;fill-rule:evenodd;stroke:#808080;stroke-width:2.88708806;stroke-linejoin:round;stroke-miterlimit:4;stroke-dasharray:none;stroke-opacity:1" />
      <path
         d="m 412.71809,380.13646 c -1.41959,0 -2.68572,-1.09348 -2.68572,-2.57062 l 0,-0.63306 0,0 0,-7.7886 -0.80572,0 0,-2.64735 2.6916,0.0192 0.61388,0 c 1.41959,0 2.68571,1.07429 2.68571,2.55144 l 0,11.06901 -2.49975,0 0,0 0,0 z"
         id="path3471"
         style="display:inline;fill:#808080;fill-opacity:1;fill-rule:evenodd;stroke:#808080;stroke-width:6.92313766;stroke-linejoin:round;stroke-miterlimit:4;stroke-dasharray:none;stroke-opacity:1"
         inkscape:connector-curvature="0" />
      <path
         d="m 388.46926,352.8768 0,62 c 0,2.91592 1.02191,5.39691 3.09375,7.46875 1.94604,1.94379 4.27802,2.97534 6.96875,3.09375 l 0,0.0312 0.53125,0 5.375,0 0,-5.3125 -5.375,0 c -1.72641,0 -2.71408,-0.49039 -3.75,-1.46875 -1.03591,-0.95679 -1.5625,-2.1067 -1.5625,-3.46875 l 0,-62.34375 -5.28125,0 z"
         id="path3473"
         style="display:inline;fill:#808080;fill-opacity:1;fill-rule:evenodd;stroke:#808080;stroke-width:6.92313766;stroke-linejoin:round;stroke-miterlimit:4;stroke-dasharray:none;stroke-opacity:1"
         inkscape:connector-curvature="0" />
    </g>
    <g
       transform="matrix(1.1392735,0,0,1.4650459,-146.14524,-69.954025)"
       id="g4331">
      <path
         d="m 798.83501,236.49772 -16.7982,0 0,-145.993427 c 0,-0.99091 -0.33028,-2.548041 -1.03808,-4.577037 -1.3684,-3.916439 -3.82206,-6.88917 -7.40822,-8.918167 -2.87835,-1.55713 -6.3701,-2.312107 -10.42809,-2.312107 -0.18866,0 -0.51904,0.09445 -1.03809,0.235885 -0.51904,0.188904 -0.84935,0.283134 -1.03811,0.283134 -0.99088,0 -2.54802,0.613422 -4.57704,1.793064 -3.39737,1.84024 -5.80388,4.577037 -7.17225,8.163189 -0.99091,2.217729 -1.50995,4.010793 -1.50995,5.332014 l 0,145.993432 -16.79823,0 0,-145.993432 c 0,-0.141678 -0.0944,-0.896532 -0.28311,-2.26493 -0.51904,-2.076198 -1.46277,-4.105195 -2.83115,-6.134192 -3.06708,-4.246751 -6.93634,-6.74759 -11.74931,-7.408188 0.51904,0 -0.6606,0 -3.53895,0 -0.18866,0 -0.51905,0 -1.03809,0 -0.51904,0 -0.84935,0 -0.99091,0 -0.84933,0 -2.40649,0.613421 -4.62421,1.793063 -4.95453,2.548041 -7.7385,6.558858 -8.4463,12.032427 -0.14168,0.188658 -0.23589,0.424665 -0.23589,0.754977 l 0,147.220275 -17.36444,0 0,-146.465298 c 0,-3.397396 0.75498,-6.983523 2.26493,-10.71123 0.70778,-1.55713 1.65151,-3.303017 2.83115,-5.379191 2.35931,-4.24675 5.99262,-7.880055 10.85279,-10.852785 4.81297,-2.972705 9.90905,-4.624238 15.19389,-4.954525 1.32122,-0.188659 3.20866,-0.283111 5.61512,-0.235885 0.14143,-0.04723 0.56625,0.04723 1.27402,0.235885 0.6606,0.141432 1.08529,0.235884 1.27402,0.235884 1.50995,0 4.38831,0.849355 8.68223,2.54804 0.6606,0.188658 1.41558,0.519044 2.26493,1.038087 2.92553,1.69871 5.99262,4.24675 9.20128,7.644146 2.73677,-2.878352 5.09608,-5.001727 7.17225,-6.370126 5.4264,-3.586127 12.5043,-5.379191 21.13933,-5.332014 0.18866,-0.04723 0.61342,0.04723 1.27402,0.235884 0.70777,0.141432 1.13246,0.235884 1.3212,0.235884 1.50995,0 4.24675,0.754977 8.16319,2.312132 9.01252,3.586103 15.05233,9.767496 18.11941,18.638436 1.50996,4.577062 2.26491,8.163165 2.26491,10.71123 l 0,146.465296 0,0 0,0 z"
         id="path2594"
         style="display:inline;fill:#78c02f;fill-opacity:1;fill-rule:evenodd"
         inkscape:connector-curvature="0" />
      <polygon
         points="131.432,23.656 131.432,40.96 128.488,40.96 128.488,23.656 128.488,23.656 "
         transform="matrix(5.8982482,0,0,5.8982482,57.024177,-5.0945222)"
         id="polygon2596"
         style="display:inline;fill:#78c02f;fill-opacity:1;fill-rule:evenodd" />
      <path
         d="m 915.66753,236.49772 -16.79822,0 0,-69.17465 c 0,-0.33031 -0.10036,-1.17964 -0.28311,-2.54804 -1.36838,-6.46448 -5.33202,-10.61685 -11.98523,-12.5043 -1.03809,-0.33031 -3.07301,-0.51904 -6.13419,-0.51904 -0.18866,0 -0.56622,0.0944 -1.13247,0.28311 -0.61342,0.18866 -0.89062,0.23588 -0.89062,0.23588 -0.85526,0 -2.50675,0.61343 -4.86018,1.79309 -4.62421,2.21773 -7.31381,6.13417 -8.16316,11.74929 -0.18866,0.18866 -0.28901,0.42467 -0.28901,0.75498 l 0,69.92963 -17.35854,0 0,-102.06329 17.35854,0 c -0.13578,1.56303 -0.13578,2.87835 0,4.05799 5.85105,-2.68957 12.0855,-4.05799 18.73874,-4.05799 0.18275,0 0.65469,0.10035 1.55713,0.28903 0.85523,0.13578 1.3684,0.22999 1.50995,0.22999 3.58613,0 7.98034,1.6043 13.07052,4.86014 4.29983,2.55395 7.7444,5.94544 10.28656,10.19807 3.5861,5.61515 5.37919,11.08869 5.37919,16.32635 l 0,70.15966 -0.005,0 z"
         id="path2598"
         style="display:inline;fill:#78c02f;fill-opacity:1;fill-rule:evenodd"
         inkscape:connector-curvature="0" />
      <path
         d="m 966.20372,151.75169 -16.8454,0 0,52.61239 c 0.18866,0.47184 0.37749,1.274 0.51905,2.26491 1.22684,5.47359 4.53576,9.20718 9.95625,11.23027 1.17964,0.33029 1.84024,0.51904 2.029,0.51904 0.18865,0 0.23588,0.0944 0.23588,0.23589 0,0 0.0945,0 0.28311,0 0.18866,0 0.51907,0.0944 1.03811,0.28311 0.47187,0.18866 0.85526,0.23588 0.99091,0.23588 0.18866,0 0.47184,0 0.89651,0 0.42469,0 0.7078,0 0.89655,0 l 0,17.36444 c -6.98942,-0.33619 -13.21206,-2.12337 -18.63846,-5.33201 -4.10517,-2.40649 -7.50259,-5.80388 -10.19806,-10.23937 -3.58025,-5.75667 -5.37331,-11.419 -5.37331,-16.83949 l 0,-120.707658 17.35853,0 0,50.772128 16.8454,0 0,17.60037 0.005,0 0,0 z"
         id="path2600"
         style="display:inline;fill:#78c02f;fill-opacity:1;fill-rule:evenodd"
         inkscape:connector-curvature="0" />
    </g>
    <g
       transform="matrix(2.8022578,0,0,3.6035564,-798.75235,-1257.0852)"
       style="fill:#ffffff;fill-opacity:1;stroke:none"
       id="g3524">
      <polygon
         style="display:inline;fill:#ffffff;fill-opacity:1;fill-rule:evenodd;stroke:none"
         id="polygon2586"
         transform="matrix(2.3979656,0,0,2.3979656,256.06967,327.36203)"
         points="66.376,23.48 66.376,40.96 64.168,40.96 64.168,23.48 64.168,23.48 " />
      <path
         inkscape:connector-curvature="0"
         style="display:inline;fill:#ffffff;fill-opacity:1;fill-rule:evenodd;stroke:none"
         id="path2588"
         d="m 441.94078,425.5827 -5.29471,0 0,-31.7107 c 0,-1.43877 -0.51796,-2.68572 -1.55389,-3.72164 -1.03591,-1.03592 -2.28286,-1.55148 -3.72163,-1.55148 -1.45797,0 -2.70491,0.51795 -3.74083,1.55148 -1.03592,1.03592 -1.55389,2.28287 -1.55389,3.72164 l 0,31.7107 -5.27552,0 0,-31.7107 c 0,-2.89674 1.01674,-5.39063 3.08858,-7.46006 2.07184,-2.07185 4.56573,-3.11017 7.48166,-3.11017 2.89674,0 5.39062,1.03832 7.46246,3.11017 2.07184,2.06943 3.10777,4.56332 3.10777,7.46006 l 0,31.7107 0,0 z" />
      <path
         inkscape:connector-curvature="0"
         style="display:inline;fill:#ffffff;fill-opacity:1;fill-rule:evenodd;stroke:none"
         id="path2590"
         d="m 467.03309,415.01007 c 0,2.91592 -1.03592,5.39063 -3.08858,7.46247 -2.07184,2.06945 -4.56573,3.10776 -7.48165,3.10776 -2.89674,0 -5.39063,-1.03831 -7.46247,-3.10776 -2.07184,-2.07184 -3.10776,-4.54655 -3.10776,-7.46247 l 0,-31.7083 5.2947,0 0,31.7107 c 0,1.45796 0.51796,2.68572 1.55388,3.72164 1.03592,1.03832 2.28287,1.55389 3.72165,1.55389 1.45796,0 2.7049,-0.51797 3.74082,-1.55389 1.03592,-1.03592 1.55388,-2.26128 1.55388,-3.72164 l 0,-31.7107 5.27553,0 0,31.7083 0,0 z" />
      <polygon
         style="display:inline;fill:#ffffff;fill-opacity:1;fill-rule:evenodd;stroke:none"
         id="polygon2592"
         transform="matrix(2.3979656,0,0,2.3979656,256.06967,327.36203)"
         points="89.624,23.328 92.056,23.328 94.04,28.8 96.024,23.328 98.448,23.328 95.248,32.144 98.448,40.96 98.448,40.96 96.024,40.96 94.04,35.488 92.056,40.96 89.624,40.96 92.824,32.144 " />
      <path
         inkscape:connector-curvature="0"
         style="display:inline;fill:#ffffff;fill-opacity:1;fill-rule:evenodd;stroke:none"
         id="path2602"
         d="m 412.71809,380.13646 c -1.41959,0 -2.68572,-1.09348 -2.68572,-2.57062 l 0,-0.63306 0,0 0,-7.7886 -0.80572,0 0,-2.64735 2.6916,0.0192 0.61388,0 c 1.41959,0 2.68571,1.07429 2.68571,2.55144 l 0,11.06901 -2.49975,0 0,0 0,0 z" />
      <path
         inkscape:connector-curvature="0"
         style="display:inline;fill:#ffffff;fill-opacity:1;fill-rule:evenodd;stroke:none"
         id="polygon3803"
         d="m 388.46926,352.8768 0,62 c 0,2.91592 1.02191,5.39691 3.09375,7.46875 1.94604,1.94379 4.27802,2.97534 6.96875,3.09375 l 0,0.0312 0.53125,0 5.375,0 0,-5.3125 -5.375,0 c -1.72641,0 -2.71408,-0.49039 -3.75,-1.46875 -1.03591,-0.95679 -1.5625,-2.1067 -1.5625,-3.46875 l 0,-62.34375 -5.28125,0 z" />
    </g>
    <g
       transform="matrix(1.1392735,0,0,1.4650459,-146.14524,-69.954025)"
       id="g4351">
      <path
         d="m 820.96524,123.81757 c -3.49174,0 -6.65321,-2.68959 -6.65321,-6.32289 l 0,-1.55716 0,0 0,-19.157504 -1.93462,0 0,-6.511681 10.14499,0.04723 1.50995,0 c 3.53893,0 6.65321,2.642419 6.65321,6.275747 l 0,27.226288 -9.72032,0 0,0 0,0 z"
         id="path2604"
         style="display:inline;fill:#78c02f;fill-opacity:1;fill-rule:evenodd"
         inkscape:connector-curvature="0" />
      <path
         inkscape:connector-curvature="0"
         style="display:inline;fill:#78c02f;fill-opacity:1;fill-rule:evenodd"
         id="path4339"
         d="m 798.83501,236.49772 -16.7982,0 0,-145.993427 c 0,-0.99091 -0.33028,-2.548041 -1.03808,-4.577037 -1.3684,-3.916439 -3.82206,-6.88917 -7.40822,-8.918167 -2.87835,-1.55713 -6.3701,-2.312107 -10.42809,-2.312107 -0.18866,0 -0.51904,0.09445 -1.03809,0.235885 -0.51904,0.188904 -0.84935,0.283134 -1.03811,0.283134 -0.99088,0 -2.54802,0.613422 -4.57704,1.793064 -3.39737,1.84024 -5.80388,4.577037 -7.17225,8.163189 -0.99091,2.217729 -1.50995,4.010793 -1.50995,5.332014 l 0,145.993432 -16.79823,0 0,-145.993432 c 0,-0.141678 -0.0944,-0.896532 -0.28311,-2.26493 -0.51904,-2.076198 -1.46277,-4.105195 -2.83115,-6.134192 -3.06708,-4.246751 -6.93634,-6.74759 -11.74931,-7.408188 0.51904,0 -0.6606,0 -3.53895,0 -0.18866,0 -0.51905,0 -1.03809,0 -0.51904,0 -0.84935,0 -0.99091,0 -0.84933,0 -2.40649,0.613421 -4.62421,1.793063 -4.95453,2.548041 -7.7385,6.558858 -8.4463,12.032427 -0.14168,0.188658 -0.23589,0.424665 -0.23589,0.754977 l 0,147.220275 -17.36444,0 0,-146.465298 c 0,-3.397396 0.75498,-6.983523 2.26493,-10.71123 0.70778,-1.55713 1.65151,-3.303017 2.83115,-5.379191 2.35931,-4.24675 5.99262,-7.880055 10.85279,-10.852785 4.81297,-2.972705 9.90905,-4.624238 15.19389,-4.954525 1.32122,-0.188659 3.20866,-0.283111 5.61512,-0.235885 0.14143,-0.04723 0.56625,0.04723 1.27402,0.235885 0.6606,0.141432 1.08529,0.235884 1.27402,0.235884 1.50995,0 4.38831,0.849355 8.68223,2.54804 0.6606,0.188658 1.41558,0.519044 2.26493,1.038087 2.92553,1.69871 5.99262,4.24675 9.20128,7.644146 2.73677,-2.878352 5.09608,-5.001727 7.17225,-6.370126 5.4264,-3.586127 12.5043,-5.379191 21.13933,-5.332014 0.18866,-0.04723 0.61342,0.04723 1.27402,0.235884 0.70777,0.141432 1.13246,0.235884 1.3212,0.235884 1.50995,0 4.24675,0.754977 8.16319,2.312132 9.01252,3.586103 15.05233,9.767496 18.11941,18.638436 1.50996,4.577062 2.26491,8.163165 2.26491,10.71123 l 0,146.465296 0,0 0,0 z" />
      <polygon
         style="display:inline;fill:#78c02f;fill-opacity:1;fill-rule:evenodd"
         id="polygon4341"
         transform="matrix(5.8982482,0,0,5.8982482,57.024177,-5.0945222)"
         points="128.488,40.96 128.488,23.656 128.488,23.656 131.432,23.656 131.432,40.96 " />
      <path
         inkscape:connector-curvature="0"
         style="display:inline;fill:#78c02f;fill-opacity:1;fill-rule:evenodd"
         id="path4343"
         d="m 915.66753,236.49772 -16.79822,0 0,-69.17465 c 0,-0.33031 -0.10036,-1.17964 -0.28311,-2.54804 -1.36838,-6.46448 -5.33202,-10.61685 -11.98523,-12.5043 -1.03809,-0.33031 -3.07301,-0.51904 -6.13419,-0.51904 -0.18866,0 -0.56622,0.0944 -1.13247,0.28311 -0.61342,0.18866 -0.89062,0.23588 -0.89062,0.23588 -0.85526,0 -2.50675,0.61343 -4.86018,1.79309 -4.62421,2.21773 -7.31381,6.13417 -8.16316,11.74929 -0.18866,0.18866 -0.28901,0.42467 -0.28901,0.75498 l 0,69.92963 -17.35854,0 0,-102.06329 17.35854,0 c -0.13578,1.56303 -0.13578,2.87835 0,4.05799 5.85105,-2.68957 12.0855,-4.05799 18.73874,-4.05799 0.18275,0 0.65469,0.10035 1.55713,0.28903 0.85523,0.13578 1.3684,0.22999 1.50995,0.22999 3.58613,0 7.98034,1.6043 13.07052,4.86014 4.29983,2.55395 7.7444,5.94544 10.28656,10.19807 3.5861,5.61515 5.37919,11.08869 5.37919,16.32635 l 0,70.15966 -0.005,0 z" />
      <path
         inkscape:connector-curvature="0"
         style="display:inline;fill:#78c02f;fill-opacity:1;fill-rule:evenodd"
         id="path4345"
         d="m 966.20372,151.75169 -16.8454,0 0,52.61239 c 0.18866,0.47184 0.37749,1.274 0.51905,2.26491 1.22684,5.47359 4.53576,9.20718 9.95625,11.23027 1.17964,0.33029 1.84024,0.51904 2.029,0.51904 0.18865,0 0.23588,0.0944 0.23588,0.23589 0,0 0.0945,0 0.28311,0 0.18866,0 0.51907,0.0944 1.03811,0.28311 0.47187,0.18866 0.85526,0.23588 0.99091,0.23588 0.18866,0 0.47184,0 0.89651,0 0.42469,0 0.7078,0 0.89655,0 l 0,17.36444 c -6.98942,-0.33619 -13.21206,-2.12337 -18.63846,-5.33201 -4.10517,-2.40649 -7.50259,-5.80388 -10.19806,-10.23937 -3.58025,-5.75667 -5.37331,-11.419 -5.37331,-16.83949 l 0,-120.707658 17.35853,0 0,50.772128 16.8454,0 0,17.60037 0.005,0 0,0 z" />
    </g>
  </g>
</svg>
