<?xml version="1.0" encoding="UTF-8" standalone="no"?>
<!-- Created with Inkscape (http://www.inkscape.org/) -->

<svg
   xmlns:dc="http://purl.org/dc/elements/1.1/"
   xmlns:cc="http://creativecommons.org/ns#"
   xmlns:rdf="http://www.w3.org/1999/02/22-rdf-syntax-ns#"
   xmlns:svg="http://www.w3.org/2000/svg"
   xmlns="http://www.w3.org/2000/svg"
   xmlns:xlink="http://www.w3.org/1999/xlink"
   xmlns:sodipodi="http://sodipodi.sourceforge.net/DTD/sodipodi-0.dtd"
   xmlns:inkscape="http://www.inkscape.org/namespaces/inkscape"
   version="1.0"
   width="1234.8804"
   height="287.30197"
   id="svg2619"
   inkscape:version="0.91 r13725"
   sodipodi:docname="LinuxMint_Logo-flat-02.svg"
   inkscape:export-filename="/home/sebastien/Sources/grub-themes/Sunshine-LinuxMint/LinuxMint_Logo-flat-02.png"
   inkscape:export-xdpi="23.807703"
   inkscape:export-ydpi="23.807703">
  <metadata
     id="metadata71">
    <rdf:RDF>
      <cc:Work
         rdf:about="">
        <dc:format>image/svg+xml</dc:format>
        <dc:type
           rdf:resource="http://purl.org/dc/dcmitype/StillImage" />
        <dc:title>Linux Mint Official Logo</dc:title>
      </cc:Work>
    </rdf:RDF>
  </metadata>
  <sodipodi:namedview
     pagecolor="#5b8bed"
     bordercolor="#666666"
     borderopacity="1"
     objecttolerance="10"
     gridtolerance="10"
     guidetolerance="10"
     inkscape:pageopacity="0"
     inkscape:pageshadow="2"
     inkscape:window-width="1024"
     inkscape:window-height="550"
     id="namedview69"
     showgrid="false"
     inkscape:zoom="0.5"
     inkscape:cx="-151.72255"
     inkscape:cy="81.690857"
     inkscape:window-x="0"
     inkscape:window-y="0"
     inkscape:window-maximized="1"
     inkscape:current-layer="svg2619"
     showguides="false"
     inkscape:guide-bbox="true"
     fit-margin-top="2"
     fit-margin-left="2"
     fit-margin-right="2"
     fit-margin-bottom="2"
     showborder="true"
     inkscape:showpageshadow="false">
    <sodipodi:guide
       position="2.0000032,12.999947"
       orientation="0,1"
       id="guide4405" />
  </sodipodi:namedview>
  <title
     id="title3079">Linux Mint Official Logo</title>
  <defs
     id="defs2621">
    <linearGradient
       id="linearGradient3431">
      <stop
         id="stop3433"
         style="stop-color:#3d3d3d;stop-opacity:1"
         offset="0" />
      <stop
         id="stop3435"
         style="stop-color:#000000;stop-opacity:0.11400651"
         offset="1" />
    </linearGradient>
    <linearGradient
       id="linearGradient3312">
      <stop
         id="stop3314"
         style="stop-color:#c7f994;stop-opacity:1"
         offset="0" />
      <stop
         id="stop3316"
         style="stop-color:#87cf3e;stop-opacity:1"
         offset="1" />
    </linearGradient>
    <filter
       id="filter3291"
       style="color-interpolation-filters:sRGB">
      <feGaussianBlur
         id="feGaussianBlur3293"
         stdDeviation="0.400625" />
    </filter>
    <filter
       id="filter3546"
       style="color-interpolation-filters:sRGB">
      <feGaussianBlur
         id="feGaussianBlur3548"
         stdDeviation="0.15992437" />
    </filter>
    <linearGradient
       x1="70.491508"
       y1="416.38858"
       x2="113.64215"
       y2="375.87961"
       id="linearGradient4136"
       xlink:href="#linearGradient3431"
       gradientUnits="userSpaceOnUse"
       gradientTransform="translate(0,80)"
       spreadMethod="pad" />
    <filter
       id="filter3469"
       style="color-interpolation-filters:sRGB">
      <feGaussianBlur
         id="feGaussianBlur3471"
         stdDeviation="2.7119931" />
    </filter>
    <linearGradient
       x1="61.42857"
       y1="362.14285"
       x2="116.42857"
       y2="408.57144"
       id="linearGradient3538"
       xlink:href="#linearGradient3312"
       gradientUnits="userSpaceOnUse"
       gradientTransform="matrix(2.684162,0,0,2.684162,-89.865856,-904.32339)" />
    <filter
       id="filter3573"
       style="color-interpolation-filters:sRGB">
      <feGaussianBlur
         id="feGaussianBlur3575"
         stdDeviation="1.6284922" />
    </filter>
    <filter
       id="filter3965"
       style="color-interpolation-filters:sRGB">
      <feGaussianBlur
         id="feGaussianBlur3967"
         stdDeviation="2.4743396" />
    </filter>
    <filter
       id="filter4006"
       style="color-interpolation-filters:sRGB">
      <feGaussianBlur
         id="feGaussianBlur4008"
         stdDeviation="1.6495597" />
    </filter>
    <filter
       id="filter4135"
       style="color-interpolation-filters:sRGB">
      <feGaussianBlur
         id="feGaussianBlur4137"
         stdDeviation="0.74662361" />
    </filter>
  </defs>
  <g
     id="g3392">
    <path
       d="m 148.68503,275.30196 c -54.615153,0 -102.010475,-41.40344 -102.010475,-95.96965 l -0.049,-56.41636 0,-16.89505 -34.625555,0 0,-94.020905 146.01675,0.687649 45.6763,0.09825 c 54.66426,0 102.01045,41.354161 102.01045,95.969396 l 0,166.54665 -157.01842,0 0,0 0,0 z"
       id="path4403"
       style="display:inline;overflow:visible;visibility:visible;opacity:1;fill:#ffffff;fill-opacity:1;fill-rule:evenodd;stroke:#ffffff;stroke-width:20;stroke-linejoin:round;stroke-miterlimit:4;stroke-dasharray:none;stroke-opacity:1;marker:none;enable-background:accumulate"
       inkscape:connector-curvature="0" />
    <path
       inkscape:connector-curvature="0"
       style="display:inline;overflow:visible;visibility:visible;opacity:1;fill:#78c02f;fill-opacity:1;fill-rule:evenodd;stroke:none;stroke-width:0;stroke-miterlimit:4;stroke-dasharray:none;marker:none;enable-background:accumulate"
       id="path3543"
       d="m 148.68503,275.30196 c -54.615153,0 -102.010475,-41.40344 -102.010475,-95.96965 l -0.049,-56.41636 0,-16.89505 -34.625555,0 0,-94.020905 146.01675,0.687649 45.6763,0.09825 c 54.66426,0 102.01045,41.354161 102.01045,95.969396 l 0,166.54665 -157.01842,0 0,0 0,0 z" />
    <path
       inkscape:connector-curvature="0"
       style="display:inline;fill:#ffffff;fill-opacity:1;fill-rule:evenodd"
       id="path2576"
       d="m 285.55248,232.04556 c 0,-36.20721 0,-121.61981 0,-121.61981 0,-40.631741 -35.63252,-73.568788 -79.59741,-73.568788 l -45.6313,0 0,-0.09814 -123.415311,-0.539262 0,44.375066 c 0,0 10.076999,0 18.945012,0 13.224047,0 15.56021,9.128789 15.56021,21.764084 l 0.09814,78.45009 c 0,40.63176 35.632669,73.56876 79.548489,73.56876 l 108.42806,0 c 13.90056,0 26.06418,-8.8031 26.06418,-22.3321 z" />
    <path
       inkscape:connector-curvature="0"
       style="display:inline;overflow:visible;visibility:visible;fill:#78c02f;fill-opacity:1;fill-rule:evenodd;stroke:none;stroke-width:4.7667098;marker:none;enable-background:accumulate"
       id="path2620"
       d="m 178.28791,82.446161 c -9.89481,0 -18.68665,3.673632 -25.75072,10.809547 -7.06055,7.132122 -10.76777,16.036012 -10.76774,26.084372 l 0,50.79218 23.03793,0 0,-50.79218 c 0,-3.8514 1.25669,-6.86288 4.00658,-9.6407 2.75892,-2.78672 5.68047,-4.04826 9.47395,-4.04826 3.87298,0 6.75069,1.25519 9.51564,4.04826 2.74992,2.77782 4.0066,5.7893 4.0066,9.6407 l 0,50.79218 23.03798,0 0,-50.79218 c 0,-3.8514 1.25668,-6.86288 4.0066,-9.6407 2.76495,-2.79307 5.64266,-4.04826 9.5157,-4.04826 3.7935,0 6.71497,1.26154 9.47389,4.04826 2.74989,2.77782 4.0066,5.7893 4.0066,9.6407 l 0.12534,59.3481 c 0,12.66007 -12.05638,23.32994 -27.54536,23.32994 l -74.289,-0.29209 c -11.95283,0 -22.16153,-11.63423 -22.16153,-26.58549 l 0,-111.760924 -21.78585,0 0,116.059594 c 0,12.31389 4.50595,23.11227 13.27186,31.84424 7.49244,7.39549 16.5031,11.77164 26.62719,12.85435 l 0,0.41756 82.71954,0 c 12.71108,0 23.87838,-4.72637 32.88749,-13.89824 l 0.0418,0 c 7.6622,-7.87221 12.14151,-17.30492 13.2301,-27.92068 l -0.0836,-63.39636 c 0,-10.04836 -3.70713,-18.95225 -10.76779,-26.084372 -7.06399,-7.135915 -15.8559,-10.809547 -25.75068,-10.809547 -9.71255,0 -18.21104,3.611659 -25.083,10.225124 -6.85186,-6.602556 -15.29099,-10.225124 -24.99952,-10.225124 z" />
    <g
       transform="translate(0,1.0000033)"
       id="g4306">
      <g
         transform="matrix(1.4650459,0,0,1.4650459,-192.65242,-72.178053)"
         id="g4275"
         style="fill:#ffffff;fill-opacity:1;stroke:#ffffff;stroke-width:13.6514492;stroke-linejoin:round;stroke-miterlimit:4;stroke-dasharray:none;stroke-opacity:1">
        <path
           d="m 820.96524,123.81757 c -3.49174,0 -6.65321,-2.68959 -6.65321,-6.32289 l 0,-1.55716 0,0 0,-19.157504 -1.93462,0 0,-6.511681 10.14499,0.04723 1.50995,0 c 3.53893,0 6.65321,2.642419 6.65321,6.275747 l 0,27.226288 -9.72032,0 0,0 0,0 z"
           id="path4277"
           style="display:inline;fill:#ffffff;fill-opacity:1;fill-rule:evenodd;stroke:#ffffff;stroke-width:13.6514492;stroke-linejoin:round;stroke-miterlimit:4;stroke-dasharray:none;stroke-opacity:1"
           inkscape:connector-curvature="0" />
        <path
           inkscape:connector-curvature="0"
           style="display:inline;fill:#ffffff;fill-opacity:1;fill-rule:evenodd;stroke:#ffffff;stroke-width:13.6514492;stroke-linejoin:round;stroke-miterlimit:4;stroke-dasharray:none;stroke-opacity:1"
           id="path4279"
           d="m 798.83501,236.49772 -16.7982,0 0,-145.993427 c 0,-0.99091 -0.33028,-2.548041 -1.03808,-4.577037 -1.3684,-3.916439 -3.82206,-6.88917 -7.40822,-8.918167 -2.87835,-1.55713 -6.3701,-2.312107 -10.42809,-2.312107 -0.18866,0 -0.51904,0.09445 -1.03809,0.235885 -0.51904,0.188904 -0.84935,0.283134 -1.03811,0.283134 -0.99088,0 -2.54802,0.613422 -4.57704,1.793064 -3.39737,1.84024 -5.80388,4.577037 -7.17225,8.163189 -0.99091,2.217729 -1.50995,4.010793 -1.50995,5.332014 l 0,145.993432 -16.79823,0 0,-145.993432 c 0,-0.141678 -0.0944,-0.896532 -0.28311,-2.26493 -0.51904,-2.076198 -1.46277,-4.105195 -2.83115,-6.134192 -3.06708,-4.246751 -6.93634,-6.74759 -11.74931,-7.408188 0.51904,0 -0.6606,0 -3.53895,0 -0.18866,0 -0.51905,0 -1.03809,0 -0.51904,0 -0.84935,0 -0.99091,0 -0.84933,0 -2.40649,0.613421 -4.62421,1.793063 -4.95453,2.548041 -7.7385,6.558858 -8.4463,12.032427 -0.14168,0.188658 -0.23589,0.424665 -0.23589,0.754977 l 0,147.220275 -17.36444,0 0,-146.465298 c 0,-3.397396 0.75498,-6.983523 2.26493,-10.71123 0.70778,-1.55713 1.65151,-3.303017 2.83115,-5.379191 2.35931,-4.24675 5.99262,-7.880055 10.85279,-10.852785 4.81297,-2.972705 9.90905,-4.624238 15.19389,-4.954525 1.32122,-0.188659 3.20866,-0.283111 5.61512,-0.235885 0.14143,-0.04723 0.56625,0.04723 1.27402,0.235885 0.6606,0.141432 1.08529,0.235884 1.27402,0.235884 1.50995,0 4.38831,0.849355 8.68223,2.54804 0.6606,0.188658 1.41558,0.519044 2.26493,1.038087 2.92553,1.69871 5.99262,4.24675 9.20128,7.644146 2.73677,-2.878352 5.09608,-5.001727 7.17225,-6.370126 5.4264,-3.586127 12.5043,-5.379191 21.13933,-5.332014 0.18866,-0.04723 0.61342,0.04723 1.27402,0.235884 0.70777,0.141432 1.13246,0.235884 1.3212,0.235884 1.50995,0 4.24675,0.754977 8.16319,2.312132 9.01252,3.586103 15.05233,9.767496 18.11941,18.638436 1.50996,4.577062 2.26491,8.163165 2.26491,10.71123 l 0,146.465296 0,0 0,0 z" />
        <polygon
           style="display:inline;fill:#ffffff;fill-opacity:1;fill-rule:evenodd;stroke:#ffffff;stroke-width:2.31449223;stroke-linejoin:round;stroke-miterlimit:4;stroke-dasharray:none;stroke-opacity:1"
           id="polygon4281"
           transform="matrix(5.8982482,0,0,5.8982482,57.024177,-5.0945222)"
           points="128.488,23.656 128.488,23.656 131.432,23.656 131.432,40.96 128.488,40.96 " />
        <path
           inkscape:connector-curvature="0"
           style="display:inline;fill:#ffffff;fill-opacity:1;fill-rule:evenodd;stroke:#ffffff;stroke-width:13.6514492;stroke-linejoin:round;stroke-miterlimit:4;stroke-dasharray:none;stroke-opacity:1"
           id="path4283"
           d="m 915.66753,236.49772 -16.79822,0 0,-69.17465 c 0,-0.33031 -0.10036,-1.17964 -0.28311,-2.54804 -1.36838,-6.46448 -5.33202,-10.61685 -11.98523,-12.5043 -1.03809,-0.33031 -3.07301,-0.51904 -6.13419,-0.51904 -0.18866,0 -0.56622,0.0944 -1.13247,0.28311 -0.61342,0.18866 -0.89062,0.23588 -0.89062,0.23588 -0.85526,0 -2.50675,0.61343 -4.86018,1.79309 -4.62421,2.21773 -7.31381,6.13417 -8.16316,11.74929 -0.18866,0.18866 -0.28901,0.42467 -0.28901,0.75498 l 0,69.92963 -17.35854,0 0,-102.06329 17.35854,0 c -0.13578,1.56303 -0.13578,2.87835 0,4.05799 5.85105,-2.68957 12.0855,-4.05799 18.73874,-4.05799 0.18275,0 0.65469,0.10035 1.55713,0.28903 0.85523,0.13578 1.3684,0.22999 1.50995,0.22999 3.58613,0 7.98034,1.6043 13.07052,4.86014 4.29983,2.55395 7.7444,5.94544 10.28656,10.19807 3.5861,5.61515 5.37919,11.08869 5.37919,16.32635 l 0,70.15966 -0.005,0 z" />
        <path
           inkscape:connector-curvature="0"
           style="display:inline;fill:#ffffff;fill-opacity:1;fill-rule:evenodd;stroke:#ffffff;stroke-width:13.6514492;stroke-linejoin:round;stroke-miterlimit:4;stroke-dasharray:none;stroke-opacity:1"
           id="path4285"
           d="m 966.20372,151.75169 -16.8454,0 0,52.61239 c 0.18866,0.47184 0.37749,1.274 0.51905,2.26491 1.22684,5.47359 4.53576,9.20718 9.95625,11.23027 1.17964,0.33029 1.84024,0.51904 2.029,0.51904 0.18865,0 0.23588,0.0944 0.23588,0.23589 0,0 0.0945,0 0.28311,0 0.18866,0 0.51907,0.0944 1.03811,0.28311 0.47187,0.18866 0.85526,0.23588 0.99091,0.23588 0.18866,0 0.47184,0 0.89651,0 0.42469,0 0.7078,0 0.89655,0 l 0,17.36444 c -6.98942,-0.33619 -13.21206,-2.12337 -18.63846,-5.33201 -4.10517,-2.40649 -7.50259,-5.80388 -10.19806,-10.23937 -3.58025,-5.75667 -5.37331,-11.419 -5.37331,-16.83949 l 0,-120.707658 17.35853,0 0,50.772128 16.8454,0 0,17.60037 0.005,0 0,0 z" />
      </g>
      <g
         transform="matrix(3.6035564,0,0,3.6035564,-1031.8709,-1259.3093)"
         style="fill:#808080;fill-opacity:1;stroke:#808080;stroke-width:5.55007267;stroke-linejoin:round;stroke-miterlimit:4;stroke-dasharray:none;stroke-opacity:1"
         id="g3461">
        <polygon
           style="display:inline;fill:#808080;fill-opacity:1;fill-rule:evenodd;stroke:#808080;stroke-width:2.31449223;stroke-linejoin:round;stroke-miterlimit:4;stroke-dasharray:none;stroke-opacity:1"
           id="polygon3463"
           transform="matrix(2.3979656,0,0,2.3979656,256.06967,327.36203)"
           points="66.376,40.96 64.168,40.96 64.168,23.48 64.168,23.48 66.376,23.48 " />
        <path
           inkscape:connector-curvature="0"
           style="display:inline;fill:#808080;fill-opacity:1;fill-rule:evenodd;stroke:#808080;stroke-width:5.55007267;stroke-linejoin:round;stroke-miterlimit:4;stroke-dasharray:none;stroke-opacity:1"
           id="path3465"
           d="m 441.94078,425.5827 -5.29471,0 0,-31.7107 c 0,-1.43877 -0.51796,-2.68572 -1.55389,-3.72164 -1.03591,-1.03592 -2.28286,-1.55148 -3.72163,-1.55148 -1.45797,0 -2.70491,0.51795 -3.74083,1.55148 -1.03592,1.03592 -1.55389,2.28287 -1.55389,3.72164 l 0,31.7107 -5.27552,0 0,-31.7107 c 0,-2.89674 1.01674,-5.39063 3.08858,-7.46006 2.07184,-2.07185 4.56573,-3.11017 7.48166,-3.11017 2.89674,0 5.39062,1.03832 7.46246,3.11017 2.07184,2.06943 3.10777,4.56332 3.10777,7.46006 l 0,31.7107 0,0 z" />
        <path
           inkscape:connector-curvature="0"
           style="display:inline;fill:#808080;fill-opacity:1;fill-rule:evenodd;stroke:#808080;stroke-width:5.55007267;stroke-linejoin:round;stroke-miterlimit:4;stroke-dasharray:none;stroke-opacity:1"
           id="path3467"
           d="m 467.03309,415.01007 c 0,2.91592 -1.03592,5.39063 -3.08858,7.46247 -2.07184,2.06945 -4.56573,3.10776 -7.48165,3.10776 -2.89674,0 -5.39063,-1.03831 -7.46247,-3.10776 -2.07184,-2.07184 -3.10776,-4.54655 -3.10776,-7.46247 l 0,-31.7083 5.2947,0 0,31.7107 c 0,1.45796 0.51796,2.68572 1.55388,3.72164 1.03592,1.03832 2.28287,1.55389 3.72165,1.55389 1.45796,0 2.7049,-0.51797 3.74082,-1.55389 1.03592,-1.03592 1.55388,-2.26128 1.55388,-3.72164 l 0,-31.7107 5.27553,0 0,31.7083 0,0 z" />
        <polygon
           style="display:inline;fill:#808080;fill-opacity:1;fill-rule:evenodd;stroke:#808080;stroke-width:2.31449223;stroke-linejoin:round;stroke-miterlimit:4;stroke-dasharray:none;stroke-opacity:1"
           id="polygon3469"
           transform="matrix(2.3979656,0,0,2.3979656,256.06967,327.36203)"
           points="94.04,28.8 96.024,23.328 98.448,23.328 95.248,32.144 98.448,40.96 98.448,40.96 96.024,40.96 94.04,35.488 92.056,40.96 89.624,40.96 92.824,32.144 89.624,23.328 92.056,23.328 " />
        <path
           inkscape:connector-curvature="0"
           style="display:inline;fill:#808080;fill-opacity:1;fill-rule:evenodd;stroke:#808080;stroke-width:5.55007267;stroke-linejoin:round;stroke-miterlimit:4;stroke-dasharray:none;stroke-opacity:1"
           id="path3471"
           d="m 412.71809,380.13646 c -1.41959,0 -2.68572,-1.09348 -2.68572,-2.57062 l 0,-0.63306 0,0 0,-7.7886 -0.80572,0 0,-2.64735 2.6916,0.0192 0.61388,0 c 1.41959,0 2.68571,1.07429 2.68571,2.55144 l 0,11.06901 -2.49975,0 0,0 0,0 z" />
        <path
           inkscape:connector-curvature="0"
           style="display:inline;fill:#808080;fill-opacity:1;fill-rule:evenodd;stroke:#808080;stroke-width:5.55007267;stroke-linejoin:round;stroke-miterlimit:4;stroke-dasharray:none;stroke-opacity:1"
           id="path3473"
           d="m 388.46926,352.8768 0,62 c 0,2.91592 1.02191,5.39691 3.09375,7.46875 1.94604,1.94379 4.27802,2.97534 6.96875,3.09375 l 0,0.0312 0.53125,0 5.375,0 0,-5.3125 -5.375,0 c -1.72641,0 -2.71408,-0.49039 -3.75,-1.46875 -1.03591,-0.95679 -1.5625,-2.1067 -1.5625,-3.46875 l 0,-62.34375 -5.28125,0 z" />
      </g>
      <g
         id="g4331"
         transform="matrix(1.4650459,0,0,1.4650459,-192.65242,-72.178053)">
        <path
           inkscape:connector-curvature="0"
           style="display:inline;fill:#78c02f;fill-opacity:1;fill-rule:evenodd"
           id="path2594"
           d="m 798.83501,236.49772 -16.7982,0 0,-145.993427 c 0,-0.99091 -0.33028,-2.548041 -1.03808,-4.577037 -1.3684,-3.916439 -3.82206,-6.88917 -7.40822,-8.918167 -2.87835,-1.55713 -6.3701,-2.312107 -10.42809,-2.312107 -0.18866,0 -0.51904,0.09445 -1.03809,0.235885 -0.51904,0.188904 -0.84935,0.283134 -1.03811,0.283134 -0.99088,0 -2.54802,0.613422 -4.57704,1.793064 -3.39737,1.84024 -5.80388,4.577037 -7.17225,8.163189 -0.99091,2.217729 -1.50995,4.010793 -1.50995,5.332014 l 0,145.993432 -16.79823,0 0,-145.993432 c 0,-0.141678 -0.0944,-0.896532 -0.28311,-2.26493 -0.51904,-2.076198 -1.46277,-4.105195 -2.83115,-6.134192 -3.06708,-4.246751 -6.93634,-6.74759 -11.74931,-7.408188 0.51904,0 -0.6606,0 -3.53895,0 -0.18866,0 -0.51905,0 -1.03809,0 -0.51904,0 -0.84935,0 -0.99091,0 -0.84933,0 -2.40649,0.613421 -4.62421,1.793063 -4.95453,2.548041 -7.7385,6.558858 -8.4463,12.032427 -0.14168,0.188658 -0.23589,0.424665 -0.23589,0.754977 l 0,147.220275 -17.36444,0 0,-146.465298 c 0,-3.397396 0.75498,-6.983523 2.26493,-10.71123 0.70778,-1.55713 1.65151,-3.303017 2.83115,-5.379191 2.35931,-4.24675 5.99262,-7.880055 10.85279,-10.852785 4.81297,-2.972705 9.90905,-4.624238 15.19389,-4.954525 1.32122,-0.188659 3.20866,-0.283111 5.61512,-0.235885 0.14143,-0.04723 0.56625,0.04723 1.27402,0.235885 0.6606,0.141432 1.08529,0.235884 1.27402,0.235884 1.50995,0 4.38831,0.849355 8.68223,2.54804 0.6606,0.188658 1.41558,0.519044 2.26493,1.038087 2.92553,1.69871 5.99262,4.24675 9.20128,7.644146 2.73677,-2.878352 5.09608,-5.001727 7.17225,-6.370126 5.4264,-3.586127 12.5043,-5.379191 21.13933,-5.332014 0.18866,-0.04723 0.61342,0.04723 1.27402,0.235884 0.70777,0.141432 1.13246,0.235884 1.3212,0.235884 1.50995,0 4.24675,0.754977 8.16319,2.312132 9.01252,3.586103 15.05233,9.767496 18.11941,18.638436 1.50996,4.577062 2.26491,8.163165 2.26491,10.71123 l 0,146.465296 0,0 0,0 z" />
        <polygon
           style="display:inline;fill:#78c02f;fill-opacity:1;fill-rule:evenodd"
           id="polygon2596"
           transform="matrix(5.8982482,0,0,5.8982482,57.024177,-5.0945222)"
           points="131.432,40.96 128.488,40.96 128.488,23.656 128.488,23.656 131.432,23.656 " />
        <path
           inkscape:connector-curvature="0"
           style="display:inline;fill:#78c02f;fill-opacity:1;fill-rule:evenodd"
           id="path2598"
           d="m 915.66753,236.49772 -16.79822,0 0,-69.17465 c 0,-0.33031 -0.10036,-1.17964 -0.28311,-2.54804 -1.36838,-6.46448 -5.33202,-10.61685 -11.98523,-12.5043 -1.03809,-0.33031 -3.07301,-0.51904 -6.13419,-0.51904 -0.18866,0 -0.56622,0.0944 -1.13247,0.28311 -0.61342,0.18866 -0.89062,0.23588 -0.89062,0.23588 -0.85526,0 -2.50675,0.61343 -4.86018,1.79309 -4.62421,2.21773 -7.31381,6.13417 -8.16316,11.74929 -0.18866,0.18866 -0.28901,0.42467 -0.28901,0.75498 l 0,69.92963 -17.35854,0 0,-102.06329 17.35854,0 c -0.13578,1.56303 -0.13578,2.87835 0,4.05799 5.85105,-2.68957 12.0855,-4.05799 18.73874,-4.05799 0.18275,0 0.65469,0.10035 1.55713,0.28903 0.85523,0.13578 1.3684,0.22999 1.50995,0.22999 3.58613,0 7.98034,1.6043 13.07052,4.86014 4.29983,2.55395 7.7444,5.94544 10.28656,10.19807 3.5861,5.61515 5.37919,11.08869 5.37919,16.32635 l 0,70.15966 -0.005,0 z" />
        <path
           inkscape:connector-curvature="0"
           style="display:inline;fill:#78c02f;fill-opacity:1;fill-rule:evenodd"
           id="path2600"
           d="m 966.20372,151.75169 -16.8454,0 0,52.61239 c 0.18866,0.47184 0.37749,1.274 0.51905,2.26491 1.22684,5.47359 4.53576,9.20718 9.95625,11.23027 1.17964,0.33029 1.84024,0.51904 2.029,0.51904 0.18865,0 0.23588,0.0944 0.23588,0.23589 0,0 0.0945,0 0.28311,0 0.18866,0 0.51907,0.0944 1.03811,0.28311 0.47187,0.18866 0.85526,0.23588 0.99091,0.23588 0.18866,0 0.47184,0 0.89651,0 0.42469,0 0.7078,0 0.89655,0 l 0,17.36444 c -6.98942,-0.33619 -13.21206,-2.12337 -18.63846,-5.33201 -4.10517,-2.40649 -7.50259,-5.80388 -10.19806,-10.23937 -3.58025,-5.75667 -5.37331,-11.419 -5.37331,-16.83949 l 0,-120.707658 17.35853,0 0,50.772128 16.8454,0 0,17.60037 0.005,0 0,0 z" />
      </g>
      <g
         id="g3524"
         style="fill:#ffffff;fill-opacity:1;stroke:none"
         transform="matrix(3.6035564,0,0,3.6035564,-1031.8709,-1259.3093)">
        <polygon
           points="66.376,40.96 64.168,40.96 64.168,23.48 64.168,23.48 66.376,23.48 "
           transform="matrix(2.3979656,0,0,2.3979656,256.06967,327.36203)"
           id="polygon2586"
           style="display:inline;fill:#ffffff;fill-opacity:1;fill-rule:evenodd;stroke:none" />
        <path
           d="m 441.94078,425.5827 -5.29471,0 0,-31.7107 c 0,-1.43877 -0.51796,-2.68572 -1.55389,-3.72164 -1.03591,-1.03592 -2.28286,-1.55148 -3.72163,-1.55148 -1.45797,0 -2.70491,0.51795 -3.74083,1.55148 -1.03592,1.03592 -1.55389,2.28287 -1.55389,3.72164 l 0,31.7107 -5.27552,0 0,-31.7107 c 0,-2.89674 1.01674,-5.39063 3.08858,-7.46006 2.07184,-2.07185 4.56573,-3.11017 7.48166,-3.11017 2.89674,0 5.39062,1.03832 7.46246,3.11017 2.07184,2.06943 3.10777,4.56332 3.10777,7.46006 l 0,31.7107 0,0 z"
           id="path2588"
           style="display:inline;fill:#ffffff;fill-opacity:1;fill-rule:evenodd;stroke:none"
           inkscape:connector-curvature="0" />
        <path
           d="m 467.03309,415.01007 c 0,2.91592 -1.03592,5.39063 -3.08858,7.46247 -2.07184,2.06945 -4.56573,3.10776 -7.48165,3.10776 -2.89674,0 -5.39063,-1.03831 -7.46247,-3.10776 -2.07184,-2.07184 -3.10776,-4.54655 -3.10776,-7.46247 l 0,-31.7083 5.2947,0 0,31.7107 c 0,1.45796 0.51796,2.68572 1.55388,3.72164 1.03592,1.03832 2.28287,1.55389 3.72165,1.55389 1.45796,0 2.7049,-0.51797 3.74082,-1.55389 1.03592,-1.03592 1.55388,-2.26128 1.55388,-3.72164 l 0,-31.7107 5.27553,0 0,31.7083 0,0 z"
           id="path2590"
           style="display:inline;fill:#ffffff;fill-opacity:1;fill-rule:evenodd;stroke:none"
           inkscape:connector-curvature="0" />
        <polygon
           points="94.04,28.8 96.024,23.328 98.448,23.328 95.248,32.144 98.448,40.96 98.448,40.96 96.024,40.96 94.04,35.488 92.056,40.96 89.624,40.96 92.824,32.144 89.624,23.328 92.056,23.328 "
           transform="matrix(2.3979656,0,0,2.3979656,256.06967,327.36203)"
           id="polygon2592"
           style="display:inline;fill:#ffffff;fill-opacity:1;fill-rule:evenodd;stroke:none" />
        <path
           d="m 412.71809,380.13646 c -1.41959,0 -2.68572,-1.09348 -2.68572,-2.57062 l 0,-0.63306 0,0 0,-7.7886 -0.80572,0 0,-2.64735 2.6916,0.0192 0.61388,0 c 1.41959,0 2.68571,1.07429 2.68571,2.55144 l 0,11.06901 -2.49975,0 0,0 0,0 z"
           id="path2602"
           style="display:inline;fill:#ffffff;fill-opacity:1;fill-rule:evenodd;stroke:none"
           inkscape:connector-curvature="0" />
        <path
           d="m 388.46926,352.8768 0,62 c 0,2.91592 1.02191,5.39691 3.09375,7.46875 1.94604,1.94379 4.27802,2.97534 6.96875,3.09375 l 0,0.0312 0.53125,0 5.375,0 0,-5.3125 -5.375,0 c -1.72641,0 -2.71408,-0.49039 -3.75,-1.46875 -1.03591,-0.95679 -1.5625,-2.1067 -1.5625,-3.46875 l 0,-62.34375 -5.28125,0 z"
           id="polygon3803"
           style="display:inline;fill:#ffffff;fill-opacity:1;fill-rule:evenodd;stroke:none"
           inkscape:connector-curvature="0" />
      </g>
      <g
         id="g4351"
         transform="matrix(1.4650459,0,0,1.4650459,-192.65242,-72.178053)">
        <path
           inkscape:connector-curvature="0"
           style="display:inline;fill:#78c02f;fill-opacity:1;fill-rule:evenodd"
           id="path2604"
           d="m 820.96524,123.81757 c -3.49174,0 -6.65321,-2.68959 -6.65321,-6.32289 l 0,-1.55716 0,0 0,-19.157504 -1.93462,0 0,-6.511681 10.14499,0.04723 1.50995,0 c 3.53893,0 6.65321,2.642419 6.65321,6.275747 l 0,27.226288 -9.72032,0 0,0 0,0 z" />
        <path
           d="m 798.83501,236.49772 -16.7982,0 0,-145.993427 c 0,-0.99091 -0.33028,-2.548041 -1.03808,-4.577037 -1.3684,-3.916439 -3.82206,-6.88917 -7.40822,-8.918167 -2.87835,-1.55713 -6.3701,-2.312107 -10.42809,-2.312107 -0.18866,0 -0.51904,0.09445 -1.03809,0.235885 -0.51904,0.188904 -0.84935,0.283134 -1.03811,0.283134 -0.99088,0 -2.54802,0.613422 -4.57704,1.793064 -3.39737,1.84024 -5.80388,4.577037 -7.17225,8.163189 -0.99091,2.217729 -1.50995,4.010793 -1.50995,5.332014 l 0,145.993432 -16.79823,0 0,-145.993432 c 0,-0.141678 -0.0944,-0.896532 -0.28311,-2.26493 -0.51904,-2.076198 -1.46277,-4.105195 -2.83115,-6.134192 -3.06708,-4.246751 -6.93634,-6.74759 -11.74931,-7.408188 0.51904,0 -0.6606,0 -3.53895,0 -0.18866,0 -0.51905,0 -1.03809,0 -0.51904,0 -0.84935,0 -0.99091,0 -0.84933,0 -2.40649,0.613421 -4.62421,1.793063 -4.95453,2.548041 -7.7385,6.558858 -8.4463,12.032427 -0.14168,0.188658 -0.23589,0.424665 -0.23589,0.754977 l 0,147.220275 -17.36444,0 0,-146.465298 c 0,-3.397396 0.75498,-6.983523 2.26493,-10.71123 0.70778,-1.55713 1.65151,-3.303017 2.83115,-5.379191 2.35931,-4.24675 5.99262,-7.880055 10.85279,-10.852785 4.81297,-2.972705 9.90905,-4.624238 15.19389,-4.954525 1.32122,-0.188659 3.20866,-0.283111 5.61512,-0.235885 0.14143,-0.04723 0.56625,0.04723 1.27402,0.235885 0.6606,0.141432 1.08529,0.235884 1.27402,0.235884 1.50995,0 4.38831,0.849355 8.68223,2.54804 0.6606,0.188658 1.41558,0.519044 2.26493,1.038087 2.92553,1.69871 5.99262,4.24675 9.20128,7.644146 2.73677,-2.878352 5.09608,-5.001727 7.17225,-6.370126 5.4264,-3.586127 12.5043,-5.379191 21.13933,-5.332014 0.18866,-0.04723 0.61342,0.04723 1.27402,0.235884 0.70777,0.141432 1.13246,0.235884 1.3212,0.235884 1.50995,0 4.24675,0.754977 8.16319,2.312132 9.01252,3.586103 15.05233,9.767496 18.11941,18.638436 1.50996,4.577062 2.26491,8.163165 2.26491,10.71123 l 0,146.465296 0,0 0,0 z"
           id="path4339"
           style="display:inline;fill:#78c02f;fill-opacity:1;fill-rule:evenodd"
           inkscape:connector-curvature="0" />
        <polygon
           points="128.488,23.656 128.488,23.656 131.432,23.656 131.432,40.96 128.488,40.96 "
           transform="matrix(5.8982482,0,0,5.8982482,57.024177,-5.0945222)"
           id="polygon4341"
           style="display:inline;fill:#78c02f;fill-opacity:1;fill-rule:evenodd" />
        <path
           d="m 915.66753,236.49772 -16.79822,0 0,-69.17465 c 0,-0.33031 -0.10036,-1.17964 -0.28311,-2.54804 -1.36838,-6.46448 -5.33202,-10.61685 -11.98523,-12.5043 -1.03809,-0.33031 -3.07301,-0.51904 -6.13419,-0.51904 -0.18866,0 -0.56622,0.0944 -1.13247,0.28311 -0.61342,0.18866 -0.89062,0.23588 -0.89062,0.23588 -0.85526,0 -2.50675,0.61343 -4.86018,1.79309 -4.62421,2.21773 -7.31381,6.13417 -8.16316,11.74929 -0.18866,0.18866 -0.28901,0.42467 -0.28901,0.75498 l 0,69.92963 -17.35854,0 0,-102.06329 17.35854,0 c -0.13578,1.56303 -0.13578,2.87835 0,4.05799 5.85105,-2.68957 12.0855,-4.05799 18.73874,-4.05799 0.18275,0 0.65469,0.10035 1.55713,0.28903 0.85523,0.13578 1.3684,0.22999 1.50995,0.22999 3.58613,0 7.98034,1.6043 13.07052,4.86014 4.29983,2.55395 7.7444,5.94544 10.28656,10.19807 3.5861,5.61515 5.37919,11.08869 5.37919,16.32635 l 0,70.15966 -0.005,0 z"
           id="path4343"
           style="display:inline;fill:#78c02f;fill-opacity:1;fill-rule:evenodd"
           inkscape:connector-curvature="0" />
        <path
           d="m 966.20372,151.75169 -16.8454,0 0,52.61239 c 0.18866,0.47184 0.37749,1.274 0.51905,2.26491 1.22684,5.47359 4.53576,9.20718 9.95625,11.23027 1.17964,0.33029 1.84024,0.51904 2.029,0.51904 0.18865,0 0.23588,0.0944 0.23588,0.23589 0,0 0.0945,0 0.28311,0 0.18866,0 0.51907,0.0944 1.03811,0.28311 0.47187,0.18866 0.85526,0.23588 0.99091,0.23588 0.18866,0 0.47184,0 0.89651,0 0.42469,0 0.7078,0 0.89655,0 l 0,17.36444 c -6.98942,-0.33619 -13.21206,-2.12337 -18.63846,-5.33201 -4.10517,-2.40649 -7.50259,-5.80388 -10.19806,-10.23937 -3.58025,-5.75667 -5.37331,-11.419 -5.37331,-16.83949 l 0,-120.707658 17.35853,0 0,50.772128 16.8454,0 0,17.60037 0.005,0 0,0 z"
           id="path4345"
           style="display:inline;fill:#78c02f;fill-opacity:1;fill-rule:evenodd"
           inkscape:connector-curvature="0" />
      </g>
    </g>
  </g>
</svg>
